<?xml version="1.0" standalone="no"?>
<!DOCTYPE svg PUBLIC "-//W3C//DTD SVG 1.1//EN" "http://www.w3.org/Graphics/SVG/1.1/DTD/svg11.dtd" >
<svg xmlns="http://www.w3.org/2000/svg" xmlns:xlink="http://www.w3.org/1999/xlink" version="1.1">
<metadata>
Created by FontForge 20170910 at Fri Jan  1 01:00:00 1904
 By Jimmy Wärting
Copyright (C) 1990-1992 ParaGraph JV.
</metadata>
<defs>
<font id="FuturisCyrillic" horiz-adv-x="2245" >
  <font-face 
    font-family="Futuris"
    font-weight="400"
    font-stretch="normal"
    units-per-em="4096"
    panose-1="2 11 114 0 0 0 0 0 0 0"
    ascent="3276"
    descent="-820"
    x-height="1778"
    cap-height="2867"
    bbox="0 -918 4706 3486"
    underline-thickness="56"
    underline-position="-308"
    unicode-range="U+0020-2122"
  />
<missing-glyph horiz-adv-x="3072" 
d="M512 0v2560h2048v-2560h-2048zM2494 66v2428h-1916v-2428h1916z" />
    <glyph glyph-name=".notdef" horiz-adv-x="3072" 
d="M512 0v2560h2048v-2560h-2048zM2494 66v2428h-1916v-2428h1916z" />
    <glyph glyph-name=".null" horiz-adv-x="0" 
 />
    <glyph glyph-name="nonmarkingreturn" horiz-adv-x="0" 
 />
    <glyph glyph-name="space" unicode=" " horiz-adv-x="1438" 
 />
    <glyph glyph-name="exclam" unicode="!" horiz-adv-x="950" 
d="M352 573v2294h246v-2294h-246zM287 143q0 82 56.5 135.5t131.5 53.5q74 0 131.5 -53.5t57.5 -135.5q0 -81 -58 -134.5t-131 -53.5t-130.5 53.5t-57.5 134.5z" />
    <glyph glyph-name="quotedbl" unicode="&#x22;" horiz-adv-x="1384" 
d="M606 2867l-119 -831h-172l-110 831h401zM1180 2867l-119 -831h-172l-111 831h402z" />
    <glyph glyph-name="numbersign" unicode="#" horiz-adv-x="3260" 
d="M590 2109h557l102 594h230l-103 -594h742l102 594h229l-102 -594h553l-49 -278h-553l-135 -795h549l-46 -278h-552l-103 -594h-229l102 594h-741l-103 -594h-229l102 594h-553l46 278h557l135 795h-553zM1933 1036l135 795h-741l-135 -795h741z" />
    <glyph glyph-name="dollar" unicode="$" horiz-adv-x="2134" 
d="M1167 -74v-413h-221v413q-562 42 -831 635l262 131q43 -111 117.5 -225t219.5 -206.5t355 -92.5q186 0 322 86t206 227t70 297q0 191 -95.5 317t-202.5 185.5t-349 173.5q-373 182 -555 356t-182 463q0 259 131 405.5t277.5 197.5t254.5 61v360h221v-360
q440 -27 652 -430l-226 -131q-57 134 -183 230.5t-329 96.5q-259 0 -381 -125.5t-122 -296.5q0 -154 92 -265t213.5 -179t341.5 -170q233 -109 383.5 -208.5t252 -263t101.5 -400.5q0 -245 -108.5 -437t-290 -303.5t-396.5 -128.5z" />
    <glyph glyph-name="percent" unicode="%" horiz-adv-x="3244" 
d="M618 -86l1692 3039h201l-1692 -3039h-201zM102 2265q0 192 94.5 343t248.5 234t317 83q157 0 311.5 -83t251 -234t96.5 -343q0 -191 -95.5 -341t-249 -234t-314.5 -84q-259 0 -459.5 187.5t-200.5 471.5zM332 2265q0 -136 61.5 -241.5t161 -163.5t207.5 -58t207.5 58
t161 163.5t61.5 241.5t-61.5 241.5t-161 163.5t-207.5 58t-207.5 -58t-161 -163.5t-61.5 -241.5zM1823 659q0 193 93.5 343.5t246 233.5t319.5 83q162 0 314.5 -83t249 -234.5t96.5 -342.5t-96 -341.5t-249 -234t-315 -83.5q-168 0 -320 84t-245.5 235t-93.5 340zM2052 659
q0 -198 130 -330t300 -132q167 0 298.5 129t131.5 333q0 201 -131 332t-299 131q-108 0 -207.5 -58t-161 -163.5t-61.5 -241.5z" />
    <glyph glyph-name="ampersand" unicode="&#x26;" horiz-adv-x="2560" 
d="M2228 0l-327 414q-131 -165 -279 -287q-137 -114 -266.5 -157.5t-319.5 -43.5q-270 0 -462 111t-289 291t-97 385q0 210 81.5 369t232.5 289t403 292q-178 209 -257 343.5t-79 295.5q0 157 82.5 287t226 204t318.5 74q174 0 302.5 -72.5t195.5 -200.5t67 -288
q0 -181 -115.5 -332.5t-408.5 -359.5l684 -856l385 454l172 -139l-418 -491l455 -582h-287zM1761 582l-725 913q-221 -156 -332 -250t-182 -223t-71 -309q0 -163 82 -298t219.5 -213.5t291.5 -78.5q132 0 234.5 43.5t207.5 137.5t275 278zM1110 1774q205 129 301 247t96 297
q0 143 -94.5 248t-228.5 105q-132 0 -248.5 -93.5t-116.5 -271.5q0 -136 89.5 -278t201.5 -254z" />
    <glyph glyph-name="quotesingle" unicode="'" horiz-adv-x="811" 
d="M606 2867l-119 -831h-172l-110 831h401z" />
    <glyph glyph-name="parenleft" unicode="(" horiz-adv-x="893" 
d="M778 -860l-196 -53q-238 603 -309.5 1137.5t-71.5 852.5q0 225 24 471t71.5 505.5t119.5 516.5t166 494l196 -53q-315 -1029 -315 -1934q0 -910 315 -1937z" />
    <glyph glyph-name="parenright" unicode=")" horiz-adv-x="893" 
d="M115 3011l196 53q90 -224 164 -487.5t121 -514.5t71.5 -505.5t24.5 -479.5q0 -166 -22.5 -449.5t-108 -703t-250.5 -837.5l-196 53q123 400 194 763.5t96 646t25 527.5q0 244 -25 525.5t-96 644.5t-194 764z" />
    <glyph glyph-name="asterisk" unicode="*" horiz-adv-x="1667" 
d="M733 3011h201v-517l446 259l99 -173l-443 -258l443 -258l-99 -172l-446 258v-516h-201v516l-442 -258l-103 172l447 258l-447 258l103 173l442 -259v517z" />
    <glyph glyph-name="plus" unicode="+" horiz-adv-x="2458" 
d="M205 1319v229h909v910h229v-910h910v-229h-910v-909h-229v909h-909z" />
    <glyph glyph-name="comma" unicode="," horiz-adv-x="1036" 
d="M188 -549l373 1008l287 -135l-512 -942z" />
    <glyph glyph-name="hyphen" unicode="-" horiz-adv-x="1262" 
d="M172 1180h918v-246h-918v246z" />
    <glyph glyph-name="period" unicode="." horiz-adv-x="950" 
d="M287 143q0 82 56.5 135.5t131.5 53.5q74 0 131.5 -53.5t57.5 -135.5q0 -81 -58 -134.5t-131 -53.5t-130.5 53.5t-57.5 134.5z" />
    <glyph glyph-name="slash" unicode="/" horiz-adv-x="1950" 
d="M86 -860l1548 3871h230l-1549 -3871h-229z" />
    <glyph glyph-name="zero" unicode="0" 
d="M1122 -82q-204 0 -402.5 101.5t-350.5 439t-152 975.5q0 909 281 1212t624 303q346 0 626 -301.5t280 -1213.5q0 -916 -280 -1216t-626 -300zM1122 143q241 0 434 251t193 1040q0 791 -191.5 1040.5t-435.5 249.5q-240 0 -433 -252.5t-193 -1037.5q0 -551 106 -837
t242.5 -370t277.5 -84z" />
    <glyph glyph-name="one" unicode="1" 
d="M1085 0v2638h-487l111 229h655v-2867h-279z" />
    <glyph glyph-name="two" unicode="2" 
d="M1995 229v-229h-1790l684 733q269 288 419 460.5t244 313t137.5 274t43.5 287.5q0 186 -65.5 335.5t-190 233t-293.5 83.5q-229 0 -379.5 -116t-219.5 -294t-69 -364h-278q2 174 54 349t165 323.5t299.5 239.5t447.5 91q263 0 445.5 -122t272 -324.5t89.5 -438.5
q0 -164 -42.5 -307.5t-131 -287.5t-228 -310.5t-360.5 -400.5q-392 -422 -487 -529h1233z" />
    <glyph glyph-name="three" unicode="3" 
d="M205 717h274q5 -144 68.5 -274t199.5 -213t338 -83q175 0 322.5 71.5t236.5 211t89 332.5q0 361 -226.5 489.5t-552.5 128.5v230q709 0 709 540q0 162 -67.5 292.5t-196 204t-305.5 73.5q-183 0 -302.5 -79.5t-177.5 -201.5t-77 -268h-258q24 318 233 548t614 230
q371 0 583 -210t212 -552q0 -231 -98.5 -407.5t-360.5 -276.5v-8q197 -44 373 -205t176 -512q0 -269 -127.5 -465t-342 -295.5t-464.5 -99.5q-296 0 -490.5 120t-285.5 302.5t-96 376.5z" />
    <glyph glyph-name="four" unicode="4" 
d="M1393 0v676h-1291l1487 2273h66v-2044h303v-229h-303v-676h-262zM1393 905v1381l-881 -1381h881z" />
    <glyph glyph-name="five" unicode="5" 
d="M1860 2638h-930l-213 -881q191 86 368 86q248 0 449.5 -112t318.5 -322.5t117 -490.5q0 -274 -110.5 -502.5t-324.5 -363t-503 -134.5q-575 0 -868 565l213 119q239 -455 639 -455q213 0 366 98.5t231.5 276t78.5 408.5q0 195 -71.5 351t-218.5 244.5t-362 88.5
q-367 0 -589 -213l-74 20l344 1446h1139v-229z" />
    <glyph glyph-name="six" unicode="6" 
d="M1434 2949l221 -131l-840 -1200q152 78 348 78q259 0 452 -115.5t294.5 -307.5t101.5 -417q0 -170 -50.5 -333t-158.5 -301t-277.5 -221t-398.5 -83q-256 0 -459.5 102t-318.5 303t-115 484q0 244 73 413t231 406zM1122 147q282 0 446.5 187.5t164.5 492.5
q0 283 -164 461t-447 178q-284 0 -447 -179t-163 -460q0 -302 164.5 -491t445.5 -189z" />
    <glyph glyph-name="seven" unicode="7" 
d="M410 20l1253 2618h-1401v229h1806l-1433 -2949z" />
    <glyph glyph-name="eight" unicode="8" 
d="M1425 1544v-8q249 -61 411.5 -262t162.5 -479q0 -201 -67 -365t-188.5 -279t-281 -174t-340.5 -59q-251 0 -450.5 104.5t-312.5 304t-113 468.5q0 186 73.5 340t205.5 257.5t294 143.5v8q-181 56 -326 213t-145 447q0 244 109 412.5t286 250.5t379 82t379 -82t286 -250.5
t109 -412.5q0 -292 -145 -448.5t-326 -211.5zM1122 1638q155 0 272.5 73.5t180.5 199t63 268.5q0 237 -133 389t-383 152q-183 0 -299.5 -83t-166.5 -207.5t-50 -250.5q0 -222 146.5 -381.5t369.5 -159.5zM1122 147q264 0 435.5 174.5t171.5 469.5q0 187 -83 328
t-222.5 215.5t-301.5 74.5q-256 0 -433 -168.5t-177 -449.5q0 -292 176 -468t434 -176z" />
    <glyph glyph-name="nine" unicode="9" 
d="M811 -82l-221 131l840 1200q-152 -78 -349 -78q-257 0 -450.5 115t-295.5 307.5t-102 417.5q0 165 51.5 331.5t158.5 303.5t277.5 220t397.5 83q256 0 459.5 -102t318.5 -303t115 -484q0 -243 -72.5 -412.5t-230.5 -406.5zM1122 2720q-282 0 -446 -187t-164 -493
q0 -183 72.5 -329.5t211.5 -228t326 -81.5q188 0 326.5 82.5t211.5 229t73 327.5q0 304 -165 492t-446 188z" />
    <glyph glyph-name="colon" unicode=":" horiz-adv-x="950" 
d="M287 1634q0 82 56.5 135.5t131.5 53.5q84 0 136.5 -56.5t52.5 -132.5q0 -81 -58 -134.5t-131 -53.5t-130.5 53.5t-57.5 134.5zM287 143q0 82 56.5 135.5t131.5 53.5q74 0 131.5 -53.5t57.5 -135.5q0 -81 -58 -134.5t-131 -53.5t-130.5 53.5t-57.5 134.5z" />
    <glyph glyph-name="semicolon" unicode=";" horiz-adv-x="1036" 
d="M442 1634q0 82 57.5 135.5t131.5 53.5q75 0 131.5 -52.5t56.5 -136.5q0 -83 -57.5 -135.5t-130.5 -52.5t-131 53.5t-58 134.5zM188 -549l373 1008l287 -135l-512 -942z" />
    <glyph glyph-name="less" unicode="&#x3c;" horiz-adv-x="2048" 
d="M483 1434l1360 -672v-230l-1638 820v164l1638 819v-230z" />
    <glyph glyph-name="equal" unicode="=" horiz-adv-x="2458" 
d="M205 1589v230h2048v-230h-2048zM205 1049v229h2048v-229h-2048z" />
    <glyph glyph-name="greater" unicode="&#x3e;" horiz-adv-x="2048" 
d="M1565 1434l-1360 671v230l1638 -819v-164l-1638 -820v230z" />
    <glyph glyph-name="question" unicode="?" horiz-adv-x="1880" 
d="M442 2204h-241q3 305 191 525t571 220q223 0 385.5 -85.5t246.5 -237t84 -340.5t-71 -314.5t-191 -211.5t-332 -199q-177 -97 -267 -155.5t-147 -137t-57 -187.5q0 -117 84 -210t273 -93q202 0 291.5 104t89.5 244h225q0 -90 -35.5 -217.5t-169.5 -243.5t-397 -116
q-258 0 -440.5 135.5t-182.5 368.5q0 175 67.5 291t182.5 197.5t328 199.5q194 107 289 177.5t138.5 157t43.5 218.5q0 198 -111 312t-327 114q-288 0 -398.5 -163t-122.5 -353zM745 143q0 82 57.5 135.5t131.5 53.5q75 0 131.5 -52.5t56.5 -136.5q0 -83 -57.5 -135.5
t-130.5 -52.5t-131 53.5t-58 134.5z" />
    <glyph glyph-name="at" unicode="@" horiz-adv-x="3596" 
d="M2613 2171l-229 -1061q-8 -33 -8 -86q0 -104 57.5 -154.5t126.5 -50.5q104 0 228 73.5t212 232t88 391.5q0 400 -187.5 671.5t-488 402t-634.5 130.5q-356 0 -646.5 -163t-455 -457t-164.5 -666q0 -303 103 -549.5t285.5 -418.5t420 -261.5t498.5 -89.5q335 0 639 188
l118 -180q-344 -205 -757 -205q-354 0 -642.5 109.5t-493.5 313t-313 483t-108 610.5q0 302 106.5 578t306.5 487.5t482 330.5t621 119q401 0 700 -126t488.5 -337t278.5 -461.5t89 -508.5q0 -285 -124.5 -488t-316 -304t-382.5 -101q-272 0 -352 254q-235 -254 -557 -254
q-281 0 -442 173.5t-161 456.5q0 249 119.5 474.5t322 361t435.5 135.5q188 0 290 -58t165 -167l36 172h246zM1647 819q203 0 338.5 140t197.5 332t62 347q0 163 -82 276.5t-258 113.5q-178 0 -325.5 -106t-230.5 -283t-83 -377q0 -202 95 -322.5t286 -120.5z" />
    <glyph glyph-name="A" unicode="A" horiz-adv-x="2658" 
d="M45 0l1286 2949l1282 -2949h-286l-398 934h-1200l-397 -934h-287zM827 1163h1004l-500 1176z" />
    <glyph glyph-name="B" unicode="B" horiz-adv-x="2310" 
d="M360 2867h590q212 0 408.5 -37t359 -188t162.5 -455q0 -156 -59.5 -282.5t-156.5 -212t-214 -131.5v-9q175 -11 325 -98t242 -250.5t92 -384.5q0 -303 -143.5 -486t-367.5 -258t-484 -75h-754v2867zM639 1642h365q306 0 447.5 153.5t141.5 379.5q0 288 -188 375.5
t-397 87.5h-369v-996zM639 229h475q359 0 534 165t175 425q0 284 -187 439t-534 155h-463v-1184z" />
    <glyph glyph-name="C" unicode="C" horiz-adv-x="2867" 
d="M2753 573v-319q-446 -336 -1045 -336q-295 0 -563.5 105.5t-475.5 306t-323.5 482t-116.5 622.5q0 302 105.5 577.5t302 487.5t470.5 331t601 119q280 0 535 -75t510 -269v-324q-449 439 -1037 439q-254 0 -475 -104.5t-382 -287t-248 -414t-87 -480.5q0 -371 163 -664.5
t437 -458t588 -164.5q277 0 546.5 110t494.5 316z" />
    <glyph glyph-name="D" unicode="D" horiz-adv-x="2867" 
d="M360 0v2867h713q521 0 874.5 -205t522 -532.5t168.5 -695.5q0 -377 -168 -704t-521.5 -528.5t-875.5 -201.5h-713zM639 229h405q467 0 758.5 172.5t416 445.5t124.5 587q0 293 -99.5 519.5t-279 379t-413.5 229t-507 76.5h-405v-2409z" />
    <glyph glyph-name="E" unicode="E" horiz-adv-x="2126" 
d="M360 0v2867h1536v-229h-1257v-918h1212v-229h-1212v-1262h1257v-229h-1536z" />
    <glyph glyph-name="F" unicode="F" horiz-adv-x="1843" 
d="M360 0v2867h1352v-229h-1073v-918h1044v-229h-1044v-1491h-279z" />
    <glyph glyph-name="G" unicode="G" horiz-adv-x="3338" 
d="M1782 1393h1327q-2 -257 -72 -513.5t-229 -475t-429 -352.5t-650 -134q-471 0 -811 200.5t-514.5 544t-174.5 758.5q0 424 169.5 772.5t494 552t762.5 203.5q390 0 717 -165t548 -494l-213 -156q-398 586 -1056 586q-271 0 -484 -107.5t-355 -291.5t-215 -418t-73 -482
q0 -298 92.5 -537.5t257 -403t383 -248.5t463.5 -85q306 0 556.5 133.5t393.5 367t144 515.5h-1032v230z" />
    <glyph glyph-name="H" unicode="H" horiz-adv-x="2929" 
d="M360 0v2867h279v-1175h1651v1175h278v-2867h-278v1462h-1651v-1462h-279z" />
    <glyph glyph-name="I" unicode="I" horiz-adv-x="999" 
d="M360 0v2867h279v-2867h-279z" />
    <glyph glyph-name="J" unicode="J" horiz-adv-x="1692" 
d="M360 193l177 184q175 -230 426 -230q154 0 243 65.5t125.5 201t36.5 356.5v2097h279v-2113q0 -221 -41.5 -398.5t-196.5 -307.5t-459 -130q-185 0 -322 66t-268 209z" />
    <glyph glyph-name="K" unicode="K" horiz-adv-x="2339" 
d="M360 0v2867h279v-1331l1282 1331h344l-1360 -1388l1389 -1479h-373l-1282 1393v-1393h-279z" />
    <glyph glyph-name="L" unicode="L" horiz-adv-x="1610" 
d="M360 0v2867h279v-2638h926v-229h-1205z" />
    <glyph glyph-name="M" unicode="M" horiz-adv-x="3514" 
d="M172 0l389 2982l1196 -2556l1196 2556l389 -2982h-258l-274 2122l-1053 -2237l-1052 2237l-275 -2122h-258z" />
    <glyph glyph-name="N" unicode="N" horiz-adv-x="3174" 
d="M360 0v2982l2175 -2396v2281h279v-2982l-2175 2396v-2281h-279z" />
    <glyph glyph-name="O" unicode="O" horiz-adv-x="3555" 
d="M229 1434q0 306 108.5 582t313 486.5t492 328.5t635.5 118q345 0 631 -118t493 -329.5t315.5 -486t108.5 -581.5q0 -306 -109 -581t-315.5 -486.5t-494 -330t-629.5 -118.5q-346 0 -634.5 118.5t-492.5 328.5t-313 487t-109 582zM524 1434q0 -255 87 -485.5t254 -413
t399.5 -285.5t513.5 -103t514.5 102.5t398.5 283t252.5 413t87.5 488.5q0 257 -87.5 489.5t-252 412t-399 282t-514.5 102.5q-281 0 -514.5 -103.5t-399 -284t-253 -412t-87.5 -486.5z" />
    <glyph glyph-name="P" unicode="P" horiz-adv-x="2204" 
d="M360 0v2867h795q324 0 592 -146t268 -612q0 -471 -268.5 -616t-591.5 -145h-516v-1348h-279zM639 2638v-1061h504q586 0 586 532q0 324 -183.5 426.5t-402.5 102.5h-504z" />
    <glyph glyph-name="Q" unicode="Q" horiz-adv-x="3555" 
d="M3215 -201h-286l-299 348q-357 -229 -852 -229q-346 0 -634.5 118.5t-492.5 328.5t-313 487t-109 582q0 306 108.5 582t313 486.5t492 328.5t635.5 118q345 0 631 -118t493 -329.5t315.5 -486t108.5 -581.5q0 -235 -60.5 -451.5t-178 -395.5t-285.5 -308zM2126 1061
l504 -586q199 167 300 422.5t101 536.5q0 257 -87.5 489.5t-252 412t-399 282t-514.5 102.5q-281 0 -514.5 -103.5t-399 -284t-253 -412t-87.5 -486.5t87 -485.5t254 -413t399.5 -285.5t513.5 -103q381 0 684 193l-623 721h287z" />
    <glyph glyph-name="R" unicode="R" horiz-adv-x="2114" 
d="M360 0v2867h766q295 0 555.5 -165t260.5 -609q0 -181 -75.5 -345.5t-277.5 -284t-549 -140.5l1016 -1323h-327l-984 1319h-106v-1319h-279zM639 1548h287q729 0 729 545q0 333 -185.5 439t-478.5 106h-352v-1090z" />
    <glyph glyph-name="S" unicode="S" horiz-adv-x="2134" 
d="M1815 2515l-222 -131q-88 207 -240 271.5t-276 64.5q-256 0 -384 -132t-128 -307q0 -157 93.5 -268t207 -174t351.5 -172q238 -112 389.5 -210.5t253.5 -260.5t102 -401q0 -223 -108 -424.5t-318.5 -327t-495.5 -125.5q-388 0 -606 201.5t-319 441.5l262 131
q71 -210 240 -377.5t448 -167.5q166 0 303 76.5t218 220t81 334.5q0 129 -39.5 222.5t-116.5 166t-189 136.5t-298 151q-366 173 -555.5 353.5t-189.5 465.5q0 140 63 293t238.5 268t484.5 115q550 0 750 -434z" />
    <glyph glyph-name="T" unicode="T" horiz-adv-x="1901" 
d="M811 0v2638h-766v229h1810v-229h-765v-2638h-279z" />
    <glyph glyph-name="U" unicode="U" horiz-adv-x="2666" 
d="M315 2867h279v-1839q0 -298 100.5 -497t269 -291.5t371.5 -92.5q197 0 364.5 90.5t270.5 289t103 501.5v1839h278v-1798q0 -673 -316 -912t-700 -239q-230 0 -456.5 85.5t-395 342.5t-168.5 723v1798z" />
    <glyph glyph-name="V" unicode="V" horiz-adv-x="2327" 
d="M1163 -115l-1118 2982h303l815 -2265l815 2265h303z" />
    <glyph glyph-name="W" unicode="W" horiz-adv-x="3842" 
d="M1921 2277l-872 -2392l-1020 2982h315l709 -2265l868 2347l868 -2347l709 2265h315l-1020 -2982z" />
    <glyph glyph-name="X" unicode="X" horiz-adv-x="2064" 
d="M1032 1245l-692 -1245h-311l860 1462l-795 1405h312l626 -1171l631 1171h311l-798 -1405l860 -1462h-307z" />
    <glyph glyph-name="Y" unicode="Y" horiz-adv-x="2154" 
d="M938 0v1319l-909 1548h311l737 -1294l738 1294h311l-909 -1548v-1319h-279z" />
    <glyph glyph-name="Z" unicode="Z" horiz-adv-x="2265" 
d="M57 0l1639 2638h-1467v229h1921l-1634 -2638h1634v-229h-2093z" />
    <glyph glyph-name="bracketleft" unicode="[" horiz-adv-x="1311" 
d="M1196 -860h-836v3871h836v-230h-573v-3412h573v-229z" />
    <glyph glyph-name="backslash" unicode="\" horiz-adv-x="1950" 
d="M1864 -860h-230l-1548 3871h229z" />
    <glyph glyph-name="bracketright" unicode="]" horiz-adv-x="1311" 
d="M115 3011h835v-3871h-835v229h573v3412h-573v230z" />
    <glyph glyph-name="asciicircum" unicode="^" horiz-adv-x="1966" 
d="M983 2728l-541 -680h-278l639 819h360l639 -819h-278z" />
    <glyph glyph-name="underscore" unicode="_" horiz-adv-x="2048" 
d="M0 -631h2048v-229h-2048v229z" />
    <glyph glyph-name="grave" unicode="`" horiz-adv-x="1024" 
d="M74 2609h401l303 -516h-229z" />
    <glyph glyph-name="a" unicode="a" horiz-adv-x="2302" 
d="M1769 1462v316h230v-1778h-230v303q-102 -180 -272.5 -278.5t-382.5 -98.5q-256 0 -468 119t-335 339t-123 505q0 189 60.5 361.5t181 309t294.5 214t394 77.5q443 0 651 -389zM1114 123q172 0 322.5 87t241.5 260.5t91 418.5q0 147 -41 282t-123 245.5t-204 174.5
t-279 64q-206 0 -358.5 -106t-232.5 -282.5t-80 -377.5q0 -223 87 -398.5t239 -271.5t337 -96z" />
    <glyph glyph-name="b" unicode="b" horiz-adv-x="2302" 
d="M303 3011h246v-1520q214 360 647 360q287 0 495 -130t315.5 -350.5t107.5 -481.5q0 -290 -120 -509t-328 -336.5t-462 -117.5q-145 0 -271.5 45t-227 128.5t-173.5 203.5v-303h-229v3011zM1204 123q186 0 333.5 93t230.5 267t83 406q0 243 -89.5 416t-244 261.5
t-346.5 88.5q-200 0 -345.5 -110t-219.5 -286t-74 -370q0 -219 87 -395t241 -273.5t344 -97.5z" />
    <glyph glyph-name="c" unicode="c" horiz-adv-x="1872" 
d="M1757 344v-258q-269 -160 -549 -160q-266 0 -501.5 114.5t-377 333.5t-141.5 515q0 259 121.5 479.5t353.5 351.5t541 131q336 0 553 -151v-242q-279 197 -536 197q-220 0 -396 -95.5t-275 -270t-99 -400.5q0 -211 92 -386.5t262 -277.5t391 -102q305 0 561 221z" />
    <glyph glyph-name="d" unicode="d" horiz-adv-x="2302" 
d="M1999 0h-230v303q-125 -225 -317.5 -301t-337.5 -76q-192 0 -360 67t-295.5 193.5t-199 305.5t-71.5 397q0 250 111 471.5t324 356t499 134.5q431 0 631 -360v1515h246v-3006zM1114 123q131 0 249.5 50t209 145t143.5 240t53 331q0 195 -75 370t-222 285.5t-350 110.5
q-208 0 -359.5 -105.5t-231.5 -282t-80 -378.5q0 -223 87 -398.5t239 -271.5t337 -96z" />
    <glyph glyph-name="e" unicode="e" horiz-adv-x="2109" 
d="M1733 561l188 -94q-270 -541 -819 -541q-300 0 -507 146.5t-307 369t-100 447.5q0 237 99.5 458t307 362.5t507.5 141.5q295 0 480 -145t262 -345t77 -374v-119h-1470q0 -201 80 -371.5t228 -272t343 -101.5q423 0 631 438zM471 1065h1204q-6 161 -80 296.5t-201.5 214.5
t-287.5 79q-262 0 -430 -169t-205 -421z" />
    <glyph glyph-name="f" unicode="f" horiz-adv-x="1065" 
d="M360 0v1581h-286v197h286v794q0 475 410 475q125 0 238 -36v-209q-87 49 -189 49q-213 0 -213 -287v-786h402v-197h-402v-1581h-246z" />
    <glyph glyph-name="g" unicode="g" horiz-adv-x="2302" 
d="M266 -332h271q51 -204 217 -296.5t364 -92.5q385 0 510 242t125 536v217q-105 -170 -276.5 -259t-362.5 -89q-192 0 -360 67t-295.5 193.5t-199 305.5t-71.5 397q0 251 109 472t321 355.5t504 134.5q450 0 647 -389v316h230v-1721q0 -274 -93.5 -494.5t-292 -350.5
t-495.5 -130q-406 0 -599.5 175.5t-252.5 410.5zM1114 123q172 0 322.5 87t241.5 260.5t91 418.5q0 193 -74.5 369.5t-221 286.5t-351.5 110q-208 0 -359.5 -105.5t-231.5 -282t-80 -378.5q0 -223 87 -398.5t239 -271.5t337 -96z" />
    <glyph glyph-name="h" unicode="h" horiz-adv-x="2068" 
d="M303 0v3011h246v-1528q196 368 598 368q313 0 465.5 -196.5t152.5 -515.5v-1139h-245v1106q0 223 -73 386t-329 163q-173 0 -302.5 -102t-198 -271t-68.5 -356v-926h-246z" />
    <glyph glyph-name="i" unicode="i" horiz-adv-x="852" 
d="M303 1778h246v-1778h-246v1778zM238 2380q0 75 49.5 131.5t138.5 56.5q87 0 137.5 -56.5t50.5 -131.5q0 -87 -59 -138t-129 -51t-129 51.5t-59 137.5z" />
    <glyph glyph-name="j" unicode="j" horiz-adv-x="852" 
d="M303 1778h246v-2638h-246v2638zM238 2380q0 75 49.5 131.5t138.5 56.5q87 0 137.5 -56.5t50.5 -131.5q0 -87 -59 -138t-129 -51t-129 51.5t-59 137.5z" />
    <glyph glyph-name="k" unicode="k" horiz-adv-x="1888" 
d="M303 0v3011h246v-1954l794 721h336l-872 -766l1036 -1012h-356l-856 860l-82 -69v-791h-246z" />
    <glyph glyph-name="l" unicode="l" horiz-adv-x="852" 
d="M303 0v3011h246v-3011h-246z" />
    <glyph glyph-name="m" unicode="m" horiz-adv-x="3113" 
d="M549 1470q219 381 602 381q192 0 321.5 -102t169.5 -270q201 372 623 372q328 0 436.5 -211t108.5 -469v-1171h-246v1171q0 484 -352 484q-211 0 -372 -184.5t-161 -520.5v-950h-245v1159q0 496 -344 496q-141 0 -266.5 -95t-200 -258t-74.5 -352v-950h-246v1778h246
v-308z" />
    <glyph glyph-name="n" unicode="n" horiz-adv-x="2068" 
d="M303 0v1778h246v-295q196 368 598 368q313 0 465.5 -196.5t152.5 -515.5v-1139h-245v1106q0 223 -73 386t-329 163q-173 0 -302.5 -102t-198 -271t-68.5 -356v-926h-246z" />
    <glyph glyph-name="o" unicode="o" horiz-adv-x="2310" 
d="M1155 -74q-260 0 -481.5 116.5t-353.5 335.5t-132 511t132 511t353.5 335t481.5 116t481.5 -116t353.5 -335t132 -511t-132 -511t-353.5 -335.5t-481.5 -116.5zM1155 123q206 0 367 103t249.5 278.5t88.5 384.5t-88.5 384.5t-249.5 278.5t-367 103q-203 0 -364.5 -102.5
t-250.5 -278.5t-89 -385t89 -385t250.5 -278.5t364.5 -102.5z" />
    <glyph glyph-name="p" unicode="p" horiz-adv-x="2302" 
d="M303 1778h229v-316q207 389 664 389q287 0 495 -130t315.5 -350.5t107.5 -481.5q0 -290 -120 -509t-328 -336.5t-462 -117.5q-423 0 -655 348v-1134h-246v2638zM1204 123q186 0 333.5 93t230.5 267t83 406q0 243 -89.5 416t-244 261.5t-346.5 88.5q-200 0 -345.5 -110
t-219.5 -286t-74 -370q0 -219 87 -395t241 -273.5t344 -97.5z" />
    <glyph glyph-name="q" unicode="q" horiz-adv-x="2302" 
d="M1999 -860h-246v1134q-105 -170 -276.5 -259t-362.5 -89q-192 0 -360 67t-295.5 193.5t-199 305.5t-71.5 397q0 250 111 471.5t324 356t499 134.5q450 0 647 -389v316h230v-2638zM1114 123q131 0 249.5 50t209 145t143.5 240t53 331q0 195 -75 370t-222 285.5t-350 110.5
q-208 0 -359.5 -105.5t-231.5 -282t-80 -378.5q0 -223 87 -398.5t239 -271.5t337 -96z" />
    <glyph glyph-name="r" unicode="r" horiz-adv-x="1331" 
d="M303 0v1778h246v-373q123 234 245 324t275 90q106 0 217 -41l-74 -230q-81 45 -176 45q-124 0 -237 -104.5t-181.5 -263t-68.5 -307.5v-918h-246z" />
    <glyph glyph-name="s" unicode="s" horiz-adv-x="1565" 
d="M131 365l201 106q51 -156 168 -252t278 -96q178 0 275.5 99.5t97.5 252.5q0 171 -112.5 243t-309.5 130q-163 51 -268.5 104t-176.5 151t-71 249q0 140 69 254t197.5 179.5t302.5 65.5q381 0 553 -364l-184 -98q-46 116 -151 191t-238 75q-145 0 -224 -83t-79 -200
q0 -94 44 -150t108.5 -84.5t207.5 -76.5q174 -56 290.5 -111t206 -170t89.5 -297q0 -222 -162 -389.5t-489 -167.5q-451 0 -623 439z" />
    <glyph glyph-name="t" unicode="t" horiz-adv-x="1024" 
d="M360 0v1581h-286v197h286v688h246v-688h344v-197h-344v-1581h-246z" />
    <glyph glyph-name="u" unicode="u" horiz-adv-x="2093" 
d="M303 1778h246v-1078q0 -220 100.5 -398.5t399.5 -178.5q297 0 396 179.5t99 397.5v1078h246v-1049q0 -468 -230.5 -635.5t-510.5 -167.5q-286 0 -516 167.5t-230 635.5v1049z" />
    <glyph glyph-name="v" unicode="v" horiz-adv-x="1778" 
d="M889 -90l-860 1868h274l594 -1348l586 1348h266z" />
    <glyph glyph-name="w" unicode="w" horiz-adv-x="2843" 
d="M1421 1393l-573 -1483l-819 1868h286l545 -1291l561 1467l561 -1467l545 1291h287l-819 -1868z" />
    <glyph glyph-name="x" unicode="x" horiz-adv-x="1708" 
d="M45 0l660 913l-631 865h315l475 -693l443 693h286l-589 -860l659 -918h-311l-504 745l-488 -745h-315z" />
    <glyph glyph-name="y" unicode="y" horiz-adv-x="1855" 
d="M45 1778h279l667 -1504l570 1504h249l-1048 -2638h-266l368 876z" />
    <glyph glyph-name="z" unicode="z" horiz-adv-x="1741" 
d="M156 1778h1454l-1118 -1581h1146v-197h-1564l1134 1581h-1052v197z" />
    <glyph glyph-name="braceleft" unicode="{" horiz-adv-x="1356" 
d="M205 897v217q385 77 385 619q0 81 -8 237q-9 176 -9 230q0 628 578 688v-189q-303 -33 -303 -413q0 -95 6 -224t6 -256q0 -175 -33.5 -316t-140 -267.5t-309.5 -206.5v-21q202 -80 309 -206.5t140.5 -267.5t33.5 -316q0 -127 -6 -256t-6 -223q0 -381 303 -414v-189
q-578 60 -578 689q0 53 9 229q8 156 8 238q0 541 -385 618z" />
    <glyph glyph-name="bar" unicode="|" horiz-adv-x="639" 
d="M205 -918v4314h229v-4314h-229z" />
    <glyph glyph-name="braceright" unicode="}" horiz-adv-x="1356" 
d="M1151 1114v-217q-385 -77 -385 -618q0 -82 8 -238t8 -229q0 -629 -577 -689v189q303 33 303 414q0 94 -6 223t-6 256q0 175 33.5 316t140.5 267.5t309 206.5v21q-203 80 -309.5 206.5t-140 267.5t-33.5 316q0 127 6 256t6 224q0 380 -303 413v189q577 -60 577 -688
q0 -74 -8 -230t-8 -237q0 -542 385 -619z" />
    <glyph glyph-name="asciitilde" unicode="~" horiz-adv-x="2458" 
d="M205 1278v229q193 205 450 205q119 0 240 -38t391 -138q228 -88 331.5 -120t184.5 -32q232 0 451 205v-229q-193 -205 -451 -205q-114 0 -237.5 38t-393.5 138q-211 84 -320.5 118t-195.5 34q-232 0 -450 -205z" />
    <glyph glyph-name="nonbreakingspace" unicode="&#xa0;" horiz-adv-x="1024" 
 />
    <glyph glyph-name="afii10062" unicode="&#xa1;" horiz-adv-x="2298" 
d="M705 0l397 868l-1045 1999h316l868 -1708l774 1708h283l-1311 -2867h-282zM643 3396l221 90q36 -115 137 -178.5t228 -63.5q291 0 364 242l226 -90q-89 -212 -256 -288.5t-334 -76.5q-163 0 -335.5 76.5t-250.5 288.5z" />
    <glyph glyph-name="afii10110" unicode="&#xa2;" horiz-adv-x="1855" 
d="M45 1778h279l667 -1504l570 1504h249l-1048 -2638h-266l368 876zM406 2535l221 91q44 -192 161 -250t203 -58q163 0 250.5 93.5t114.5 214.5l225 -91q-58 -195 -227 -304t-363 -109q-198 0 -361 107.5t-224 305.5z" />
    <glyph glyph-name="afii10057" unicode="&#xa3;" horiz-adv-x="1692" 
d="M360 193l177 184q175 -230 426 -230q154 0 243 65.5t125.5 201t36.5 356.5v2097h279v-2113q0 -221 -41.5 -398.5t-196.5 -307.5t-459 -130q-185 0 -322 66t-268 209z" />
    <glyph glyph-name="currency" unicode="&#xa4;" horiz-adv-x="2703" 
d="M496 733q-250 311 -250 701q0 391 250 700l-291 291l155 155l291 -290q314 250 701 250q389 0 700 -250l291 290l156 -155l-291 -291q250 -309 250 -700q0 -390 -250 -701l291 -291l-156 -155l-291 291q-309 -250 -700 -250q-390 0 -701 250l-291 -291l-155 155z
M475 1434q0 -222 108.5 -424.5t309.5 -327.5t459 -125q257 0 458 125t309.5 327.5t108.5 424.5q0 223 -108.5 424.5t-309.5 326.5t-458 125q-221 0 -424.5 -108.5t-328 -308.5t-124.5 -459z" />
    <glyph glyph-name="afii10050" unicode="&#xa5;" horiz-adv-x="1667" 
d="M360 0v2867h1004v488h258v-717h-983v-2638h-279z" />
    <glyph glyph-name="brokenbar" unicode="&#xa6;" horiz-adv-x="950" 
d="M287 1634q0 82 56.5 135.5t131.5 53.5q84 0 136.5 -56.5t52.5 -132.5q0 -81 -58 -134.5t-131 -53.5t-130.5 53.5t-57.5 134.5zM287 143q0 82 56.5 135.5t131.5 53.5q74 0 131.5 -53.5t57.5 -135.5q0 -81 -58 -134.5t-131 -53.5t-130.5 53.5t-57.5 134.5z" />
    <glyph glyph-name="section" unicode="&#xa7;" horiz-adv-x="1933" 
d="M266 0h258q0 -174 106.5 -302t352.5 -128q59 0 149 23.5t169 101.5t79 227q0 153 -69.5 250.5t-172 148.5t-245.5 93q-283 79 -487.5 241t-204.5 500q0 238 131.5 403.5t331.5 235.5q-160 62 -258.5 197t-98.5 327q0 170 84.5 315.5t237.5 230.5t346 85q217 0 367 -98.5
t225 -263.5t75 -363h-258v74q0 144 -97 283t-304 139q-185 0 -299.5 -120.5t-114.5 -289.5q0 -144 71.5 -228.5t158 -119t245.5 -78.5q296 -79 492.5 -229t196.5 -475q0 -249 -139.5 -415.5t-336.5 -244.5q181 -67 283 -221t102 -360q0 -166 -78 -302t-230 -216t-359 -80
q-311 0 -469 133t-199 277.5t-41 248.5zM967 659q153 0 263.5 70.5t167 186.5t56.5 247t-55.5 245.5t-166 184.5t-265.5 70q-202 0 -345 -137.5t-143 -362.5q0 -226 144 -365t344 -139z" />
    <glyph glyph-name="afii10023" unicode="&#xa8;" horiz-adv-x="2126" 
d="M360 0v2867h1536v-229h-1257v-918h1212v-229h-1212v-1262h1257v-229h-1536zM631 3277q0 92 57.5 140t126.5 48q72 0 128 -51t56 -137q0 -83 -57 -136t-127 -53q-64 0 -124 48t-60 141zM1290 3277q0 81 56 134.5t129 53.5q72 0 128 -53t56 -135q0 -83 -57 -136t-127 -53
q-71 0 -128 53.5t-57 135.5z" />
    <glyph glyph-name="copyright" unicode="&#xa9;" horiz-adv-x="3441" 
d="M205 1434q0 278 109 551t310.5 492t482.5 345.5t613 126.5q286 0 558 -108t488.5 -309.5t343 -482t126.5 -615.5t-127 -616.5t-343 -481.5t-490 -309t-556 -109q-332 0 -613 127.5t-482.5 345.5t-310.5 492t-109 551zM434 1434q0 -236 92 -468.5t262.5 -417.5t410 -293
t521.5 -108q285 0 524.5 108.5t410 294.5t261 416t90.5 468t-90.5 468.5t-260 415t-410 293.5t-525.5 109q-282 0 -521.5 -108t-410 -292t-262.5 -417t-92 -469zM2343 639q-262 -152 -565 -152q-266 0 -479.5 124t-332 340t-118.5 483q0 266 124 483.5t338 340t468 122.5
q164 0 289.5 -34.5t275.5 -121.5v-319q-298 188 -565 188q-187 0 -320 -92t-199.5 -243t-66.5 -324q0 -278 154 -469t432 -191q290 0 565 176v-311z" />
    <glyph glyph-name="afii10053" unicode="&#xaa;" horiz-adv-x="2753" 
d="M2609 459v-312q-426 -229 -901 -229q-303 0 -570 104.5t-474 305t-321 482t-114 624.5q0 432 179 777t516.5 541.5t787.5 196.5q240 0 458 -51t439 -186v-308q-392 316 -889 316q-239 0 -454 -87t-377 -241.5t-255 -357.5t-102 -428h1733v-230h-1741q9 -244 99.5 -467.5
t250.5 -395t374 -269t464 -97.5q460 0 897 312z" />
    <glyph glyph-name="guillemotleft" unicode="&#xab;" horiz-adv-x="1778" 
d="M172 901l614 864l172 -114l-536 -750l536 -754l-172 -114zM803 901l614 864l172 -114l-536 -750l536 -754l-172 -114z" />
    <glyph glyph-name="logicalnot" unicode="&#xac;" horiz-adv-x="2580" 
d="M205 1548v230h2048v-885h-246v655h-1802z" />
    <glyph glyph-name="registered" unicode="&#xae;" horiz-adv-x="3465" 
d="M217 1434q0 277 109 549.5t310 491t482.5 346.5t614.5 128q281 0 551.5 -108t489.5 -310t346.5 -483t127.5 -614t-128 -614.5t-346.5 -482.5t-491 -310t-549.5 -109t-550 109t-491.5 310.5t-346.5 483.5t-128 613zM446 1434q0 -319 162 -617t457.5 -484t667.5 -186
q283 0 523.5 108.5t411 294.5t261 415t90.5 469t-90.5 469.5t-261 414.5t-411 293.5t-523.5 108.5q-372 0 -667.5 -186t-457.5 -484t-162 -616zM1176 545v1777h671q167 0 337.5 -97.5t170.5 -381.5q0 -223 -149.5 -347t-309.5 -124h-41l562 -827h-336l-541 819h-78v-819
h-286zM1462 2093v-500h246q201 0 270.5 67.5t69.5 182.5q0 118 -58.5 184t-240.5 66h-287z" />
    <glyph glyph-name="afii10056" unicode="&#xaf;" horiz-adv-x="999" 
d="M360 0v2867h279v-2867h-279zM61 3277q0 81 57.5 134.5t131.5 53.5q75 0 131.5 -52.5t56.5 -135.5q0 -74 -52.5 -131.5t-135.5 -57.5q-82 0 -135.5 58t-53.5 131zM561 3277q0 81 56.5 134.5t132.5 53.5q83 0 135.5 -56.5t52.5 -131.5q0 -74 -53.5 -131.5t-134.5 -57.5
q-82 0 -135.5 58t-53.5 131z" />
    <glyph glyph-name="degree" unicode="&#xb0;" horiz-adv-x="1237" 
d="M160 2494q0 132 66 238t172.5 163.5t219.5 57.5q114 0 220.5 -57.5t172.5 -163.5t66 -238t-66 -237.5t-172.5 -163t-220.5 -57.5q-113 0 -219.5 57.5t-172.5 163t-66 237.5zM360 2494q0 -100 73.5 -179t184.5 -79q117 0 188 78.5t71 179.5q0 104 -71.5 181.5t-187.5 77.5
q-108 0 -183 -77.5t-75 -181.5z" />
    <glyph glyph-name="plusminus" unicode="&#xb1;" horiz-adv-x="2458" 
d="M205 1483v229h909v909h229v-909h910v-229h-910v-787h-229v787h-909zM205 246v229h2048v-229h-2048z" />
    <glyph glyph-name="afii10055" unicode="&#xb2;" horiz-adv-x="999" 
d="M360 0v2867h279v-2867h-279z" />
    <glyph glyph-name="afii10103" unicode="&#xb3;" horiz-adv-x="852" 
d="M303 1778h246v-1778h-246v1778zM238 2380q0 75 49.5 131.5t138.5 56.5q87 0 137.5 -56.5t50.5 -131.5q0 -87 -59 -138t-129 -51t-129 51.5t-59 137.5z" />
    <glyph glyph-name="afii10098" unicode="&#xb4;" horiz-adv-x="1339" 
d="M303 0v1778h762v458h229v-655h-745v-1581h-246z" />
    <glyph glyph-name="mu" unicode="&#xb5;" horiz-adv-x="2073" 
d="M1769 1778v-1778h-245v295q-101 -200 -238.5 -268t-249.5 -68t-249 68t-238 268v-1155h-246v2638h246v-893q0 -199 61.5 -367.5t173 -265t252.5 -96.5t253 97t173.5 265t61.5 367v893h245z" />
    <glyph glyph-name="paragraph" unicode="&#xb6;" horiz-adv-x="0" 
 />
    <glyph glyph-name="periodcentered" unicode="&#xb7;" horiz-adv-x="950" 
d="M287 1057q0 81 56.5 134.5t131.5 53.5q74 0 131.5 -53.5t57.5 -134.5q0 -82 -58 -135.5t-131 -53.5t-130.5 53.5t-57.5 135.5z" />
    <glyph glyph-name="afii10071" unicode="&#xb8;" horiz-adv-x="2109" 
d="M1733 561l188 -94q-270 -541 -819 -541q-300 0 -507 146.5t-307 369t-100 447.5q0 237 99.5 458t307 362.5t507.5 141.5q295 0 480 -145t262 -345t77 -374v-119h-1470q0 -201 80 -371.5t228 -272t343 -101.5q423 0 631 438zM471 1065h1204q-6 161 -80 296.5t-201.5 214.5
t-287.5 79q-262 0 -430 -169t-205 -421zM541 2380q0 73 48 130.5t136 57.5q82 0 137.5 -57t55.5 -131q0 -75 -58 -132t-135 -57q-68 0 -126 50.5t-58 138.5zM1192 2380q0 82 54 135t138 53q82 0 133.5 -55.5t51.5 -132.5q0 -89 -58.5 -139t-126.5 -50q-77 0 -134.5 52
t-57.5 137z" />
    <glyph glyph-name="afii61352" unicode="&#xb9;" horiz-adv-x="4747" 
d="M360 0v2982l2175 -2396v2281h279v-2982l-2175 2396v-2281h-279zM3858 430q-391 0 -553.5 250t-162.5 524q0 159 61.5 337t222.5 307.5t432 129.5q328 0 522.5 -214t194.5 -560q0 -345 -194 -559.5t-523 -214.5zM3858 627q144 0 255.5 74.5t172 205.5t60.5 297
q0 164 -60.5 295.5t-172.5 207t-255 75.5q-174 0 -283 -89.5t-156.5 -223t-47.5 -265.5t48 -265.5t156.5 -222.5t282.5 -89zM3244 0v197h1233v-197h-1233z" />
    <glyph glyph-name="afii10101" unicode="&#xba;" horiz-adv-x="1724" 
d="M1409 1012v-197h-958q12 -173 90.5 -330t242 -259.5t408.5 -102.5q234 0 418 123v-230q-188 -90 -434 -90q-270 0 -495 112.5t-359 331.5t-134 519q0 305 132 523.5t359 328.5t501 110q217 0 430 -73v-217q-211 94 -393 94q-211 0 -381.5 -82.5t-270 -230t-106.5 -330.5
h950z" />
    <glyph glyph-name="guillemotright" unicode="&#xbb;" horiz-adv-x="1778" 
d="M1606 897l-615 -864l-172 114l537 750l-537 754l172 114zM975 897l-615 -864l-172 114l537 750l-537 754l172 114z" />
    <glyph glyph-name="afii10105" unicode="&#xbc;" horiz-adv-x="852" 
d="M303 1778h246v-2638h-246v2638zM238 2380q0 75 49.5 131.5t138.5 56.5q87 0 137.5 -56.5t50.5 -131.5q0 -87 -59 -138t-129 -51t-129 51.5t-59 137.5z" />
    <glyph glyph-name="afii10054" unicode="&#xbd;" horiz-adv-x="2134" 
d="M1815 2515l-222 -131q-88 207 -240 271.5t-276 64.5q-256 0 -384 -132t-128 -307q0 -157 93.5 -268t207 -174t351.5 -172q238 -112 389.5 -210.5t253.5 -260.5t102 -401q0 -223 -108 -424.5t-318.5 -327t-495.5 -125.5q-388 0 -606 201.5t-319 441.5l262 131
q71 -210 240 -377.5t448 -167.5q166 0 303 76.5t218 220t81 334.5q0 129 -39.5 222.5t-116.5 166t-189 136.5t-298 151q-366 173 -555.5 353.5t-189.5 465.5q0 140 63 293t238.5 268t484.5 115q550 0 750 -434z" />
    <glyph glyph-name="afii10102" unicode="&#xbe;" horiz-adv-x="1565" 
d="M131 365l201 106q51 -156 168 -252t278 -96q178 0 275.5 99.5t97.5 252.5q0 171 -112.5 243t-309.5 130q-163 51 -268.5 104t-176.5 151t-71 249q0 140 69 254t197.5 179.5t302.5 65.5q381 0 553 -364l-184 -98q-46 116 -151 191t-238 75q-145 0 -224 -83t-79 -200
q0 -94 44 -150t108.5 -84.5t207.5 -76.5q174 -56 290.5 -111t206 -170t89.5 -297q0 -222 -162 -389.5t-489 -167.5q-451 0 -623 439z" />
    <glyph glyph-name="afii10104" unicode="&#xbf;" horiz-adv-x="999" 
d="M377 1778h246v-1778h-246v1778zM61 2380q0 73 49.5 130.5t139.5 57.5q87 0 137.5 -56.5t50.5 -131.5q0 -87 -59 -138t-129 -51t-129.5 51.5t-59.5 137.5zM561 2380q0 73 49.5 130.5t139.5 57.5q86 0 137 -56t51 -132q0 -87 -59 -138t-129 -51t-129.5 51.5t-59.5 137.5z
" />
    <glyph glyph-name="afii10017" unicode="&#xc0;" horiz-adv-x="2658" 
d="M45 0l1286 2949l1282 -2949h-286l-398 934h-1200l-397 -934h-287zM827 1163h1004l-500 1176z" />
    <glyph glyph-name="afii10017" unicode="&#x410;" horiz-adv-x="2658" 
d="M45 0l1286 2949l1282 -2949h-286l-398 934h-1200l-397 -934h-287zM827 1163h1004l-500 1176z" />
    <glyph glyph-name="afii10018" unicode="&#xc1;" horiz-adv-x="2286" 
d="M360 0v2867h1442v-229h-1163v-946h471q987 0 987 -840q0 -357 -175.5 -546t-416.5 -247.5t-514 -58.5h-631zM639 229h397q164 0 334 39t305 178t135 406q0 263 -124 398.5t-277.5 173.5t-302.5 38h-467v-1233z" />
    <glyph glyph-name="afii10018" unicode="&#x411;" horiz-adv-x="2286" 
d="M360 0v2867h1442v-229h-1163v-946h471q987 0 987 -840q0 -357 -175.5 -546t-416.5 -247.5t-514 -58.5h-631zM639 229h397q164 0 334 39t305 178t135 406q0 263 -124 398.5t-277.5 173.5t-302.5 38h-467v-1233z" />
    <glyph glyph-name="afii10019" unicode="&#xc2;" horiz-adv-x="2310" 
d="M360 2867h590q212 0 408.5 -37t359 -188t162.5 -455q0 -156 -59.5 -282.5t-156.5 -212t-214 -131.5v-9q175 -11 325 -98t242 -250.5t92 -384.5q0 -303 -143.5 -486t-367.5 -258t-484 -75h-754v2867zM639 1642h365q306 0 447.5 153.5t141.5 379.5q0 288 -188 375.5
t-397 87.5h-369v-996zM639 229h475q359 0 534 165t175 425q0 284 -187 439t-534 155h-463v-1184z" />
    <glyph glyph-name="afii10019" unicode="&#x412;" horiz-adv-x="2310" 
d="M360 2867h590q212 0 408.5 -37t359 -188t162.5 -455q0 -156 -59.5 -282.5t-156.5 -212t-214 -131.5v-9q175 -11 325 -98t242 -250.5t92 -384.5q0 -303 -143.5 -486t-367.5 -258t-484 -75h-754v2867zM639 1642h365q306 0 447.5 153.5t141.5 379.5q0 288 -188 375.5
t-397 87.5h-369v-996zM639 229h475q359 0 534 165t175 425q0 284 -187 439t-534 155h-463v-1184z" />
    <glyph glyph-name="afii10020" unicode="&#xc3;" horiz-adv-x="1667" 
d="M360 0v2867h1262v-229h-983v-2638h-279z" />
    <glyph glyph-name="afii10020" unicode="&#x413;" horiz-adv-x="1667" 
d="M360 0v2867h1262v-229h-983v-2638h-279z" />
    <glyph glyph-name="afii10021" unicode="&#xc4;" horiz-adv-x="2613" 
d="M610 2867h1602v-2638h344v-802h-258v573h-1995v-573h-258v802q291 0 428 311t137 828v1499zM889 2638v-1270q0 -290 -23 -489.5t-97 -365t-212 -284.5h1376v2409h-1044z" />
    <glyph glyph-name="afii10021" unicode="&#x414;" horiz-adv-x="2613" 
d="M610 2867h1602v-2638h344v-802h-258v573h-1995v-573h-258v802q291 0 428 311t137 828v1499zM889 2638v-1270q0 -290 -23 -489.5t-97 -365t-212 -284.5h1376v2409h-1044z" />
    <glyph glyph-name="afii10022" unicode="&#xc5;" horiz-adv-x="2126" 
d="M360 0v2867h1536v-229h-1257v-918h1212v-229h-1212v-1262h1257v-229h-1536z" />
    <glyph glyph-name="afii10022" unicode="&#x415;" horiz-adv-x="2126" 
d="M360 0v2867h1536v-229h-1257v-918h1212v-229h-1212v-1262h1257v-229h-1536z" />
    <glyph glyph-name="afii10024" unicode="&#xc6;" horiz-adv-x="3465" 
d="M1593 0v1405l-1175 -1405h-373l1282 1466l-1208 1401h344l1130 -1347v1347h279v-1347l1130 1347h344l-1208 -1401l1282 -1466h-373l-1175 1405v-1405h-279z" />
    <glyph glyph-name="afii10024" unicode="&#x416;" horiz-adv-x="3465" 
d="M1593 0v1405l-1175 -1405h-373l1282 1466l-1208 1401h344l1130 -1347v1347h279v-1347l1130 1347h344l-1208 -1401l1282 -1466h-373l-1175 1405v-1405h-279z" />
    <glyph glyph-name="afii10025" unicode="&#xc7;" horiz-adv-x="2236" 
d="M426 2372l-217 143q289 434 881 434q149 0 288.5 -48t249 -141.5t173 -230.5t63.5 -309q0 -231 -122.5 -412.5t-332.5 -238.5v-13q266 -46 432 -252t166 -509q0 -273 -130.5 -472t-356 -302t-504.5 -103q-621 0 -930 606l238 123q91 -220 278.5 -360t413.5 -140
q212 0 372 87.5t246 241.5t86 343q0 275 -150.5 414.5t-309.5 174t-269 34.5h-291v229h283q237 0 415.5 115.5t178.5 421.5q0 236 -139 374t-381 138q-187 0 -345.5 -70.5t-285.5 -277.5z" />
    <glyph glyph-name="afii10025" unicode="&#x417;" horiz-adv-x="2236" 
d="M426 2372l-217 143q289 434 881 434q149 0 288.5 -48t249 -141.5t173 -230.5t63.5 -309q0 -231 -122.5 -412.5t-332.5 -238.5v-13q266 -46 432 -252t166 -509q0 -273 -130.5 -472t-356 -302t-504.5 -103q-621 0 -930 606l238 123q91 -220 278.5 -360t413.5 -140
q212 0 372 87.5t246 241.5t86 343q0 275 -150.5 414.5t-309.5 174t-269 34.5h-291v229h283q237 0 415.5 115.5t178.5 421.5q0 236 -139 374t-381 138q-187 0 -345.5 -70.5t-285.5 -277.5z" />
    <glyph glyph-name="afii10026" unicode="&#xc8;" horiz-adv-x="2957" 
d="M360 2867h279v-2269l1958 2384v-2982h-279v2269l-1958 -2384v2982z" />
    <glyph glyph-name="afii10026" unicode="&#x418;" horiz-adv-x="2957" 
d="M360 2867h279v-2269l1958 2384v-2982h-279v2269l-1958 -2384v2982z" />
    <glyph glyph-name="afii10027" unicode="&#xc9;" horiz-adv-x="2957" 
d="M360 2867h279v-2269l1958 2384v-2982h-279v2269l-1958 -2384v2982zM893 3396l221 90q36 -115 137 -178.5t228 -63.5q291 0 364 242l225 -90q-88 -212 -255 -288.5t-334 -76.5q-165 0 -336.5 76.5t-249.5 288.5z" />
    <glyph glyph-name="afii10027" unicode="&#x419;" horiz-adv-x="2957" 
d="M360 2867h279v-2269l1958 2384v-2982h-279v2269l-1958 -2384v2982zM893 3396l221 90q36 -115 137 -178.5t228 -63.5q291 0 364 242l225 -90q-88 -212 -255 -288.5t-334 -76.5q-165 0 -336.5 76.5t-249.5 288.5z" />
    <glyph glyph-name="afii10028" unicode="&#xca;" horiz-adv-x="2339" 
d="M360 0v2867h279v-1331l1282 1331h344l-1360 -1388l1389 -1479h-373l-1282 1393v-1393h-279z" />
    <glyph glyph-name="afii10028" unicode="&#x41a;" horiz-adv-x="2339" 
d="M360 0v2867h279v-1331l1282 1331h344l-1360 -1388l1389 -1479h-373l-1282 1393v-1393h-279z" />
    <glyph glyph-name="afii10029" unicode="&#xcb;" horiz-adv-x="2626" 
d="M672 2867h1593v-2867h-278v2638h-1037v-1544q0 -268 -28.5 -464.5t-102.5 -343.5t-212.5 -229t-352.5 -82q-81 0 -225 25v229q123 -20 155 -20q212 0 319.5 122t138 307t30.5 443v1786z" />
    <glyph glyph-name="afii10029" unicode="&#x41b;" horiz-adv-x="2626" 
d="M672 2867h1593v-2867h-278v2638h-1037v-1544q0 -268 -28.5 -464.5t-102.5 -343.5t-212.5 -229t-352.5 -82q-81 0 -225 25v229q123 -20 155 -20q212 0 319.5 122t138 307t30.5 443v1786z" />
    <glyph glyph-name="afii10030" unicode="&#xcc;" horiz-adv-x="3514" 
d="M172 0l389 2982l1196 -2556l1196 2556l389 -2982h-258l-274 2122l-1053 -2237l-1052 2237l-275 -2122h-258z" />
    <glyph glyph-name="afii10030" unicode="&#x41c;" horiz-adv-x="3514" 
d="M172 0l389 2982l1196 -2556l1196 2556l389 -2982h-258l-274 2122l-1053 -2237l-1052 2237l-275 -2122h-258z" />
    <glyph glyph-name="afii10031" unicode="&#xcd;" horiz-adv-x="2929" 
d="M360 0v2867h279v-1175h1651v1175h278v-2867h-278v1462h-1651v-1462h-279z" />
    <glyph glyph-name="afii10031" unicode="&#x41d;" horiz-adv-x="2929" 
d="M360 0v2867h279v-1175h1651v1175h278v-2867h-278v1462h-1651v-1462h-279z" />
    <glyph glyph-name="afii10032" unicode="&#xce;" horiz-adv-x="3555" 
d="M229 1434q0 306 108.5 582t313 486.5t492 328.5t635.5 118q345 0 631 -118t493 -329.5t315.5 -486t108.5 -581.5q0 -306 -109 -581t-315.5 -486.5t-494 -330t-629.5 -118.5q-346 0 -634.5 118.5t-492.5 328.5t-313 487t-109 582zM524 1434q0 -255 87 -485.5t254 -413
t399.5 -285.5t513.5 -103t514.5 102.5t398.5 283t252.5 413t87.5 488.5q0 257 -87.5 489.5t-252 412t-399 282t-514.5 102.5q-281 0 -514.5 -103.5t-399 -284t-253 -412t-87.5 -486.5z" />
    <glyph glyph-name="afii10032" unicode="&#x41e;" horiz-adv-x="3555" 
d="M229 1434q0 306 108.5 582t313 486.5t492 328.5t635.5 118q345 0 631 -118t493 -329.5t315.5 -486t108.5 -581.5q0 -306 -109 -581t-315.5 -486.5t-494 -330t-629.5 -118.5q-346 0 -634.5 118.5t-492.5 328.5t-313 487t-109 582zM524 1434q0 -255 87 -485.5t254 -413
t399.5 -285.5t513.5 -103t514.5 102.5t398.5 283t252.5 413t87.5 488.5q0 257 -87.5 489.5t-252 412t-399 282t-514.5 102.5q-281 0 -514.5 -103.5t-399 -284t-253 -412t-87.5 -486.5z" />
    <glyph glyph-name="afii10033" unicode="&#xcf;" horiz-adv-x="2929" 
d="M360 0v2867h2208v-2867h-278v2638h-1651v-2638h-279z" />
    <glyph glyph-name="afii10033" unicode="&#x41f;" horiz-adv-x="2929" 
d="M360 0v2867h2208v-2867h-278v2638h-1651v-2638h-279z" />
    <glyph glyph-name="afii10034" unicode="&#xd0;" horiz-adv-x="2204" 
d="M360 0v2867h795q324 0 592 -146t268 -612q0 -471 -268.5 -616t-591.5 -145h-516v-1348h-279zM639 2638v-1061h504q586 0 586 532q0 324 -183.5 426.5t-402.5 102.5h-504z" />
    <glyph glyph-name="afii10034" unicode="&#x420;" horiz-adv-x="2204" 
d="M360 0v2867h795q324 0 592 -146t268 -612q0 -471 -268.5 -616t-591.5 -145h-516v-1348h-279zM639 2638v-1061h504q586 0 586 532q0 324 -183.5 426.5t-402.5 102.5h-504z" />
    <glyph glyph-name="afii10035" unicode="&#xd1;" horiz-adv-x="2867" 
d="M2753 573v-319q-446 -336 -1045 -336q-295 0 -563.5 105.5t-475.5 306t-323.5 482t-116.5 622.5q0 302 105.5 577.5t302 487.5t470.5 331t601 119q280 0 535 -75t510 -269v-324q-449 439 -1037 439q-254 0 -475 -104.5t-382 -287t-248 -414t-87 -480.5q0 -371 163 -664.5
t437 -458t588 -164.5q277 0 546.5 110t494.5 316z" />
    <glyph glyph-name="afii10035" unicode="&#x421;" horiz-adv-x="2867" 
d="M2753 573v-319q-446 -336 -1045 -336q-295 0 -563.5 105.5t-475.5 306t-323.5 482t-116.5 622.5q0 302 105.5 577.5t302 487.5t470.5 331t601 119q280 0 535 -75t510 -269v-324q-449 439 -1037 439q-254 0 -475 -104.5t-382 -287t-248 -414t-87 -480.5q0 -371 163 -664.5
t437 -458t588 -164.5q277 0 546.5 110t494.5 316z" />
    <glyph glyph-name="afii10036" unicode="&#xd2;" horiz-adv-x="1901" 
d="M811 0v2638h-766v229h1810v-229h-765v-2638h-279z" />
    <glyph glyph-name="afii10036" unicode="&#x422;" horiz-adv-x="1901" 
d="M811 0v2638h-766v229h1810v-229h-765v-2638h-279z" />
    <glyph glyph-name="afii10037" unicode="&#xd3;" horiz-adv-x="2298" 
d="M705 0l397 868l-1045 1999h316l868 -1708l774 1708h283l-1311 -2867h-282z" />
    <glyph glyph-name="afii10037" unicode="&#x423;" horiz-adv-x="2298" 
d="M705 0l397 868l-1045 1999h316l868 -1708l774 1708h283l-1311 -2867h-282z" />
    <glyph glyph-name="afii10038" unicode="&#xd4;" horiz-adv-x="3547" 
d="M1634 0v406h-123q-461 0 -756 163.5t-424.5 418.5t-129.5 536q0 314 147 567t443 400t720 147h123v344h279v-344h119q279 0 518.5 -72t418.5 -214t278 -352.5t99 -479.5q0 -328 -152.5 -582.5t-449.5 -395.5t-712 -141h-119v-401h-279zM1634 631v1777q-658 -8 -898 -261
t-240 -627q0 -320 128 -514t380 -280.5t630 -94.5zM1913 2408v-1777q378 8 629.5 94.5t380.5 280t129 514.5q0 872 -1139 888z" />
    <glyph glyph-name="afii10038" unicode="&#x424;" horiz-adv-x="3547" 
d="M1634 0v406h-123q-461 0 -756 163.5t-424.5 418.5t-129.5 536q0 314 147 567t443 400t720 147h123v344h279v-344h119q279 0 518.5 -72t418.5 -214t278 -352.5t99 -479.5q0 -328 -152.5 -582.5t-449.5 -395.5t-712 -141h-119v-401h-279zM1634 631v1777q-658 -8 -898 -261
t-240 -627q0 -320 128 -514t380 -280.5t630 -94.5zM1913 2408v-1777q378 8 629.5 94.5t380.5 280t129 514.5q0 872 -1139 888z" />
    <glyph glyph-name="afii10039" unicode="&#xd5;" horiz-adv-x="2064" 
d="M1032 1245l-692 -1245h-311l860 1462l-795 1405h312l626 -1171l631 1171h311l-798 -1405l860 -1462h-307z" />
    <glyph glyph-name="afii10039" unicode="&#x425;" horiz-adv-x="2064" 
d="M1032 1245l-692 -1245h-311l860 1462l-795 1405h312l626 -1171l631 1171h311l-798 -1405l860 -1462h-307z" />
    <glyph glyph-name="afii10040" unicode="&#xd6;" horiz-adv-x="2929" 
d="M360 0v2867h279v-2638h1622v2638h279v-2638h344v-802h-258v573h-2266z" />
    <glyph glyph-name="afii10040" unicode="&#x426;" horiz-adv-x="2929" 
d="M360 0v2867h279v-2638h1622v2638h279v-2638h344v-802h-258v573h-2266z" />
    <glyph glyph-name="afii10041" unicode="&#xd7;" horiz-adv-x="2449" 
d="M1810 0v1290q-401 -28 -643 -28q-386 0 -579 96t-247 248.5t-54 388.5v872h278v-811q0 -212 38.5 -326.5t177 -176.5t431.5 -62q198 0 598 29v1347h279v-2867h-279z" />
    <glyph glyph-name="afii10041" unicode="&#x427;" horiz-adv-x="2449" 
d="M1810 0v1290q-401 -28 -643 -28q-386 0 -579 96t-247 248.5t-54 388.5v872h278v-811q0 -212 38.5 -326.5t177 -176.5t431.5 -62q198 0 598 29v1347h279v-2867h-279z" />
    <glyph glyph-name="afii10042" unicode="&#xd8;" horiz-adv-x="4063" 
d="M360 0v2867h279v-2638h1253v2638h279v-2638h1253v2638h279v-2867h-3343z" />
    <glyph glyph-name="afii10042" unicode="&#x428;" horiz-adv-x="4063" 
d="M360 0v2867h279v-2638h1253v2638h279v-2638h1253v2638h279v-2867h-3343z" />
    <glyph glyph-name="afii10043" unicode="&#xd9;" horiz-adv-x="4407" 
d="M360 0v2867h279v-2638h1253v2638h279v-2638h1253v2638h279v-2638h344v-802h-258v573h-3429z" />
    <glyph glyph-name="afii10043" unicode="&#x429;" horiz-adv-x="4407" 
d="M360 0v2867h279v-2638h1253v2638h279v-2638h1253v2638h279v-2638h344v-802h-258v573h-3429z" />
    <glyph glyph-name="afii10044" unicode="&#xda;" horiz-adv-x="2658" 
d="M729 0v2638h-684v229h963v-1204h475q213 0 427 -50t387 -234t173 -539q0 -350 -176.5 -537.5t-417.5 -245t-512 -57.5h-635zM1008 229h401q169 0 336.5 37.5t302.5 173t135 400.5q0 368 -222 481t-482 113h-471v-1205z" />
    <glyph glyph-name="afii10044" unicode="&#x42a;" horiz-adv-x="2658" 
d="M729 0v2638h-684v229h963v-1204h475q213 0 427 -50t387 -234t173 -539q0 -350 -176.5 -537.5t-417.5 -245t-512 -57.5h-635zM1008 229h401q169 0 336.5 37.5t302.5 173t135 400.5q0 368 -222 481t-482 113h-471v-1205z" />
    <glyph glyph-name="afii10045" unicode="&#xdb;" horiz-adv-x="3056" 
d="M360 0v2867h279v-1204h479q220 0 432.5 -50t381.5 -233t169 -540q0 -840 -1102 -840h-639zM639 229h405q176 0 342 37.5t297.5 172.5t131.5 401q0 258 -123 389.5t-275.5 168t-302.5 36.5h-475v-1205zM2417 0v2867h278v-2867h-278z" />
    <glyph glyph-name="afii10045" unicode="&#x42b;" horiz-adv-x="3056" 
d="M360 0v2867h279v-1204h479q220 0 432.5 -50t381.5 -233t169 -540q0 -840 -1102 -840h-639zM639 229h405q176 0 342 37.5t297.5 172.5t131.5 401q0 258 -123 389.5t-275.5 168t-302.5 36.5h-475v-1205zM2417 0v2867h278v-2867h-278z" />
    <glyph glyph-name="afii10046" unicode="&#xdc;" horiz-adv-x="2290" 
d="M360 0v2867h279v-1204h475q152 0 305.5 -23t311 -102.5t264 -251t106.5 -446.5q0 -350 -176.5 -537.5t-417.5 -245t-512 -57.5h-635zM639 229h401q775 0 775 611q0 368 -222 481t-483 113h-471v-1205z" />
    <glyph glyph-name="afii10046" unicode="&#x42c;" horiz-adv-x="2290" 
d="M360 0v2867h279v-1204h475q152 0 305.5 -23t311 -102.5t264 -251t106.5 -446.5q0 -350 -176.5 -537.5t-417.5 -245t-512 -57.5h-635zM639 229h401q775 0 775 611q0 368 -222 481t-483 113h-471v-1205z" />
    <glyph glyph-name="afii10047" unicode="&#xdd;" horiz-adv-x="2781" 
d="M172 147v312q439 -312 897 -312q252 0 466.5 98t373.5 269t249.5 395t98.5 467h-1741v230h1733q-10 300 -170.5 556.5t-429.5 407t-588 150.5q-493 0 -889 -316v308q151 93 302.5 145.5t298.5 72t300 19.5q341 0 615.5 -112.5t467.5 -316.5t294.5 -483.5t101.5 -602.5
q0 -343 -114.5 -625.5t-319.5 -481.5t-473.5 -304t-571.5 -105q-475 0 -901 229z" />
    <glyph glyph-name="afii10047" unicode="&#x42d;" horiz-adv-x="2781" 
d="M172 147v312q439 -312 897 -312q252 0 466.5 98t373.5 269t249.5 395t98.5 467h-1741v230h1733q-10 300 -170.5 556.5t-429.5 407t-588 150.5q-493 0 -889 -316v308q151 93 302.5 145.5t298.5 72t300 19.5q341 0 615.5 -112.5t467.5 -316.5t294.5 -483.5t101.5 -602.5
q0 -343 -114.5 -625.5t-319.5 -481.5t-473.5 -304t-571.5 -105q-475 0 -901 229z" />
    <glyph glyph-name="afii10048" unicode="&#xde;" horiz-adv-x="4317" 
d="M639 1602h360q18 278 138 522t326.5 430.5t482 290.5t594.5 104q348 0 635.5 -118t491.5 -328t312.5 -485.5t108.5 -583.5t-108.5 -584t-312.5 -485.5t-492.5 -328t-634.5 -118.5q-354 0 -638.5 117.5t-481.5 322t-303.5 465.5t-121.5 549h-356v-1372h-279v2867h279
v-1265zM1290 1434q0 -348 154.5 -643.5t439 -469.5t656.5 -174q278 0 512.5 101.5t399.5 280.5t253 412.5t88 492.5q0 260 -88 493.5t-252 411t-397.5 279.5t-515.5 102q-279 0 -512 -101.5t-398 -280t-252.5 -411t-87.5 -493.5z" />
    <glyph glyph-name="afii10048" unicode="&#x42e;" horiz-adv-x="4317" 
d="M639 1602h360q18 278 138 522t326.5 430.5t482 290.5t594.5 104q348 0 635.5 -118t491.5 -328t312.5 -485.5t108.5 -583.5t-108.5 -584t-312.5 -485.5t-492.5 -328t-634.5 -118.5q-354 0 -638.5 117.5t-481.5 322t-303.5 465.5t-121.5 549h-356v-1372h-279v2867h279
v-1265zM1290 1434q0 -348 154.5 -643.5t439 -469.5t656.5 -174q278 0 512.5 101.5t399.5 280.5t253 412.5t88 492.5q0 260 -88 493.5t-252 411t-397.5 279.5t-515.5 102q-279 0 -512 -101.5t-398 -280t-252.5 -411t-87.5 -493.5z" />
    <glyph glyph-name="afii10049" unicode="&#xdf;" horiz-adv-x="2253" 
d="M287 0l778 1274q-212 0 -404 86t-312 260.5t-120 423.5q0 142 46.5 283t159 264.5t307.5 199.5t479 76h671v-2867h-278v1262h-254l-758 -1262h-315zM1614 1491v1147h-389q-257 0 -483 -107.5t-226 -466.5q0 -573 680 -573h418z" />
    <glyph glyph-name="afii10049" unicode="&#x42f;" horiz-adv-x="2253" 
d="M287 0l778 1274q-212 0 -404 86t-312 260.5t-120 423.5q0 142 46.5 283t159 264.5t307.5 199.5t479 76h671v-2867h-278v1262h-254l-758 -1262h-315zM1614 1491v1147h-389q-257 0 -483 -107.5t-226 -466.5q0 -573 680 -573h418z" />
    <glyph glyph-name="afii10065" unicode="&#xe0;" horiz-adv-x="2302" 
d="M1769 1462v316h230v-1778h-230v303q-102 -180 -272.5 -278.5t-382.5 -98.5q-256 0 -468 119t-335 339t-123 505q0 189 60.5 361.5t181 309t294.5 214t394 77.5q443 0 651 -389zM1114 123q172 0 322.5 87t241.5 260.5t91 418.5q0 147 -41 282t-123 245.5t-204 174.5
t-279 64q-206 0 -358.5 -106t-232.5 -282.5t-80 -377.5q0 -223 87 -398.5t239 -271.5t337 -96z" />
    <glyph glyph-name="afii10065" unicode="&#x430;" horiz-adv-x="2302" 
d="M1769 1462v316h230v-1778h-230v303q-102 -180 -272.5 -278.5t-382.5 -98.5q-256 0 -468 119t-335 339t-123 505q0 189 60.5 361.5t181 309t294.5 214t394 77.5q443 0 651 -389zM1114 123q172 0 322.5 87t241.5 260.5t91 418.5q0 147 -41 282t-123 245.5t-204 174.5
t-279 64q-206 0 -358.5 -106t-232.5 -282.5t-80 -377.5q0 -223 87 -398.5t239 -271.5t337 -96z" />
    <glyph glyph-name="afii10066" unicode="&#xe1;" horiz-adv-x="2310" 
d="M426 1413h12q105 215 309.5 326.5t436.5 111.5q276 0 484.5 -131.5t318.5 -351t110 -479.5q0 -273 -114.5 -492.5t-330.5 -345t-505 -125.5q-564 0 -761.5 388t-197.5 833q0 496 113.5 813t289 479t351.5 223.5t389 98.5q238 44 353 94.5t176 155.5h262
q-74 -164 -180 -255t-209.5 -126.5t-262.5 -69.5q-252 -55 -414.5 -112.5t-294 -170.5t-218.5 -322t-117 -542zM1143 123q222 0 379 105.5t235 280.5t78 380q0 212 -87.5 388.5t-246 277t-358.5 100.5q-192 0 -350.5 -99t-250 -274t-91.5 -393t88 -393t247.5 -274t356.5 -99
z" />
    <glyph glyph-name="afii10066" unicode="&#x431;" horiz-adv-x="2310" 
d="M426 1413h12q105 215 309.5 326.5t436.5 111.5q276 0 484.5 -131.5t318.5 -351t110 -479.5q0 -273 -114.5 -492.5t-330.5 -345t-505 -125.5q-564 0 -761.5 388t-197.5 833q0 496 113.5 813t289 479t351.5 223.5t389 98.5q238 44 353 94.5t176 155.5h262
q-74 -164 -180 -255t-209.5 -126.5t-262.5 -69.5q-252 -55 -414.5 -112.5t-294 -170.5t-218.5 -322t-117 -542zM1143 123q222 0 379 105.5t235 280.5t78 380q0 212 -87.5 388.5t-246 277t-358.5 100.5q-192 0 -350.5 -99t-250 -274t-91.5 -393t88 -393t247.5 -274t356.5 -99
z" />
    <glyph glyph-name="afii10067" unicode="&#xe2;" horiz-adv-x="1880" 
d="M303 1778h664q314 0 435.5 -132t121.5 -311q0 -125 -61.5 -230t-184.5 -155v-8q110 -15 197.5 -76.5t137.5 -156t50 -205.5q0 -116 -50.5 -229.5t-194 -194t-394.5 -80.5h-721v1778zM549 1020h377q180 0 272 60.5t92 222.5q0 278 -364 278h-377v-561zM549 197h455
q401 0 401 299q0 139 -88 233t-301 94h-467v-626z" />
    <glyph glyph-name="afii10067" unicode="&#x432;" horiz-adv-x="1880" 
d="M303 1778h664q314 0 435.5 -132t121.5 -311q0 -125 -61.5 -230t-184.5 -155v-8q110 -15 197.5 -76.5t137.5 -156t50 -205.5q0 -116 -50.5 -229.5t-194 -194t-394.5 -80.5h-721v1778zM549 1020h377q180 0 272 60.5t92 222.5q0 278 -364 278h-377v-561zM549 197h455
q401 0 401 299q0 139 -88 233t-301 94h-467v-626z" />
    <glyph glyph-name="afii10068" unicode="&#xe3;" horiz-adv-x="1339" 
d="M303 0v1778h991v-197h-745v-1581h-246z" />
    <glyph glyph-name="afii10068" unicode="&#x433;" horiz-adv-x="1339" 
d="M303 0v1778h991v-197h-745v-1581h-246z" />
    <glyph glyph-name="afii10069" unicode="&#xe4;" horiz-adv-x="1958" 
d="M463 1778h1151v-1581h258v-656h-230v459h-1355v-459h-230v656q244 16 325 200.5t81 511.5v869zM1368 197v1384h-659v-840q0 -369 -217 -544h876z" />
    <glyph glyph-name="afii10069" unicode="&#x434;" horiz-adv-x="1958" 
d="M463 1778h1151v-1581h258v-656h-230v459h-1355v-459h-230v656q244 16 325 200.5t81 511.5v869zM1368 197v1384h-659v-840q0 -369 -217 -544h876z" />
    <glyph glyph-name="afii10070" unicode="&#xe5;" horiz-adv-x="2109" 
d="M1733 561l188 -94q-270 -541 -819 -541q-300 0 -507 146.5t-307 369t-100 447.5q0 237 99.5 458t307 362.5t507.5 141.5q295 0 480 -145t262 -345t77 -374v-119h-1470q0 -201 80 -371.5t228 -272t343 -101.5q423 0 631 438zM471 1065h1204q-6 161 -80 296.5t-201.5 214.5
t-287.5 79q-262 0 -430 -169t-205 -421z" />
    <glyph glyph-name="afii10070" unicode="&#x435;" horiz-adv-x="2109" 
d="M1733 561l188 -94q-270 -541 -819 -541q-300 0 -507 146.5t-307 369t-100 447.5q0 237 99.5 458t307 362.5t507.5 141.5q295 0 480 -145t262 -345t77 -374v-119h-1470q0 -201 80 -371.5t228 -272t343 -101.5q423 0 631 438zM471 1065h1204q-6 161 -80 296.5t-201.5 214.5
t-287.5 79q-262 0 -430 -169t-205 -421z" />
    <glyph glyph-name="afii10072" unicode="&#xe6;" horiz-adv-x="2572" 
d="M1163 0v926l-803 -926h-315l860 950l-803 828h304l757 -807v807h246v-807l758 807h303l-803 -828l860 -950h-315l-803 926v-926h-246z" />
    <glyph glyph-name="afii10072" unicode="&#x436;" horiz-adv-x="2572" 
d="M1163 0v926l-803 -926h-315l860 950l-803 828h304l757 -807v807h246v-807l758 807h303l-803 -828l860 -950h-315l-803 926v-926h-246z" />
    <glyph glyph-name="afii10073" unicode="&#xe7;" horiz-adv-x="1765" 
d="M377 1339l-189 123q231 389 709 389q183 0 321 -71.5t209.5 -192t71.5 -268.5q0 -277 -311 -393v-8q154 -32 257 -147.5t103 -299.5q0 -169 -91 -293t-250.5 -188t-358.5 -64q-318 0 -492.5 131t-253.5 287l201 102q174 -323 545 -323q184 0 311 92t127 272
q0 166 -113 247t-296 81h-226v197h226q178 0 277 80.5t99 234.5q0 136 -88.5 232t-279.5 96q-134 0 -261 -56.5t-247 -259.5z" />
    <glyph glyph-name="afii10073" unicode="&#x437;" horiz-adv-x="1765" 
d="M377 1339l-189 123q231 389 709 389q183 0 321 -71.5t209.5 -192t71.5 -268.5q0 -277 -311 -393v-8q154 -32 257 -147.5t103 -299.5q0 -169 -91 -293t-250.5 -188t-358.5 -64q-318 0 -492.5 131t-253.5 287l201 102q174 -323 545 -323q184 0 311 92t127 272
q0 166 -113 247t-296 81h-226v197h226q178 0 277 80.5t99 234.5q0 136 -88.5 232t-279.5 96q-134 0 -261 -56.5t-247 -259.5z" />
    <glyph glyph-name="afii10074" unicode="&#xe8;" horiz-adv-x="2060" 
d="M303 1778h246v-1291l1208 1393v-1880h-246v1278l-1208 -1393v1893z" />
    <glyph glyph-name="afii10074" unicode="&#x438;" horiz-adv-x="2060" 
d="M303 1778h246v-1291l1208 1393v-1880h-246v1278l-1208 -1393v1893z" />
    <glyph glyph-name="afii10075" unicode="&#xe9;" horiz-adv-x="2056" 
d="M471 2535l221 91q44 -192 161.5 -250t203.5 -58q163 0 250 94t114 214l226 -91q-58 -195 -227 -304t-363 -109q-198 0 -361 107t-225 306zM303 1778h246v-1291l1204 1393v-1880h-246v1278l-1204 -1393v1893z" />
    <glyph glyph-name="afii10075" unicode="&#x439;" horiz-adv-x="2056" 
d="M471 2535l221 91q44 -192 161.5 -250t203.5 -58q163 0 250 94t114 214l226 -91q-58 -195 -227 -304t-363 -109q-198 0 -361 107t-225 306zM303 1778h246v-1291l1204 1393v-1880h-246v1278l-1204 -1393v1893z" />
    <glyph glyph-name="afii10076" unicode="&#xea;" horiz-adv-x="1753" 
d="M303 0v1778h246v-795l794 795h295l-856 -828l926 -950h-315l-844 889v-889h-246z" />
    <glyph glyph-name="afii10076" unicode="&#x43a;" horiz-adv-x="1753" 
d="M303 0v1778h246v-795l794 795h295l-856 -828l926 -950h-315l-844 889v-889h-246z" />
    <glyph glyph-name="afii10077" unicode="&#xeb;" horiz-adv-x="1946" 
d="M1642 1778v-1778h-245v1581h-762v-1061q0 -520 -590 -520v201q145 0 219.5 50.5t99.5 149t25 267.5v1110h1253z" />
    <glyph glyph-name="afii10077" unicode="&#x43b;" horiz-adv-x="1946" 
d="M1642 1778v-1778h-245v1581h-762v-1061q0 -520 -590 -520v201q145 0 219.5 50.5t99.5 149t25 267.5v1110h1253z" />
    <glyph glyph-name="afii10078" unicode="&#xec;" horiz-adv-x="2466" 
d="M86 0l422 1909l725 -1565l725 1565l422 -1909h-246l-254 1262l-647 -1377l-647 1377l-254 -1262h-246z" />
    <glyph glyph-name="afii10078" unicode="&#x43c;" horiz-adv-x="2466" 
d="M86 0l422 1909l725 -1565l725 1565l422 -1909h-246l-254 1262l-647 -1377l-647 1377l-254 -1262h-246z" />
    <glyph glyph-name="afii10079" unicode="&#xed;" horiz-adv-x="2097" 
d="M303 0v1778h246v-770h999v770h246v-1778h-246v811h-999v-811h-246z" />
    <glyph glyph-name="afii10079" unicode="&#x43d;" horiz-adv-x="2097" 
d="M303 0v1778h246v-770h999v770h246v-1778h-246v811h-999v-811h-246z" />
    <glyph glyph-name="afii10080" unicode="&#xee;" horiz-adv-x="2310" 
d="M1155 -74q-260 0 -481.5 116.5t-353.5 335.5t-132 511t132 511t353.5 335t481.5 116t481.5 -116t353.5 -335t132 -511t-132 -511t-353.5 -335.5t-481.5 -116.5zM1155 123q206 0 367 103t249.5 278.5t88.5 384.5t-88.5 384.5t-249.5 278.5t-367 103q-203 0 -364.5 -102.5
t-250.5 -278.5t-89 -385t89 -385t250.5 -278.5t364.5 -102.5z" />
    <glyph glyph-name="afii10080" unicode="&#x43e;" horiz-adv-x="2310" 
d="M1155 -74q-260 0 -481.5 116.5t-353.5 335.5t-132 511t132 511t353.5 335t481.5 116t481.5 -116t353.5 -335t132 -511t-132 -511t-353.5 -335.5t-481.5 -116.5zM1155 123q206 0 367 103t249.5 278.5t88.5 384.5t-88.5 384.5t-249.5 278.5t-367 103q-203 0 -364.5 -102.5
t-250.5 -278.5t-89 -385t89 -385t250.5 -278.5t364.5 -102.5z" />
    <glyph glyph-name="afii10081" unicode="&#xef;" horiz-adv-x="2040" 
d="M303 1778h1434v-1778h-246v1581h-942v-1581h-246v1778z" />
    <glyph glyph-name="afii10081" unicode="&#x43f;" horiz-adv-x="2040" 
d="M303 1778h1434v-1778h-246v1581h-942v-1581h-246v1778z" />
    <glyph glyph-name="afii10082" unicode="&#xf0;" horiz-adv-x="2302" 
d="M303 1778h229v-316q207 389 664 389q287 0 495 -130t315.5 -350.5t107.5 -481.5q0 -290 -120 -509t-328 -336.5t-462 -117.5q-423 0 -655 348v-1134h-246v2638zM1204 123q186 0 333.5 93t230.5 267t83 406q0 243 -89.5 416t-244 261.5t-346.5 88.5q-200 0 -345.5 -110
t-219.5 -286t-74 -370q0 -219 87 -395t241 -273.5t344 -97.5z" />
    <glyph glyph-name="afii10082" unicode="&#x440;" horiz-adv-x="2302" 
d="M303 1778h229v-316q207 389 664 389q287 0 495 -130t315.5 -350.5t107.5 -481.5q0 -290 -120 -509t-328 -336.5t-462 -117.5q-423 0 -655 348v-1134h-246v2638zM1204 123q186 0 333.5 93t230.5 267t83 406q0 243 -89.5 416t-244 261.5t-346.5 88.5q-200 0 -345.5 -110
t-219.5 -286t-74 -370q0 -219 87 -395t241 -273.5t344 -97.5z" />
    <glyph glyph-name="afii10083" unicode="&#xf1;" horiz-adv-x="1872" 
d="M1757 344v-258q-269 -160 -549 -160q-266 0 -501.5 114.5t-377 333.5t-141.5 515q0 259 121.5 479.5t353.5 351.5t541 131q336 0 553 -151v-242q-279 197 -536 197q-220 0 -396 -95.5t-275 -270t-99 -400.5q0 -211 92 -386.5t262 -277.5t391 -102q305 0 561 221z" />
    <glyph glyph-name="afii10083" unicode="&#x441;" horiz-adv-x="1872" 
d="M1757 344v-258q-269 -160 -549 -160q-266 0 -501.5 114.5t-377 333.5t-141.5 515q0 259 121.5 479.5t353.5 351.5t541 131q336 0 553 -151v-242q-279 197 -536 197q-220 0 -396 -95.5t-275 -270t-99 -400.5q0 -211 92 -386.5t262 -277.5t391 -102q305 0 561 221z" />
    <glyph glyph-name="afii10084" unicode="&#xf2;" horiz-adv-x="1597" 
d="M676 0v1581h-631v197h1507v-197h-630v-1581h-246z" />
    <glyph glyph-name="afii10084" unicode="&#x442;" horiz-adv-x="1597" 
d="M676 0v1581h-631v197h1507v-197h-630v-1581h-246z" />
    <glyph glyph-name="afii10085" unicode="&#xf3;" horiz-adv-x="1855" 
d="M45 1778h279l667 -1504l570 1504h249l-1048 -2638h-266l368 876z" />
    <glyph glyph-name="afii10085" unicode="&#x443;" horiz-adv-x="1855" 
d="M45 1778h279l667 -1504l570 1504h249l-1048 -2638h-266l368 876z" />
    <glyph glyph-name="afii10086" unicode="&#xf4;" horiz-adv-x="2744" 
d="M1249 -860v831q-264 0 -506 91t-398.5 298.5t-156.5 528.5t156 527.5t398.5 298t506.5 91.5v1061h246v-1061q259 0 501.5 -91.5t401 -298t158.5 -527.5t-159 -528.5t-401 -298.5t-501 -91v-831h-246zM1249 168v1442q-296 -5 -547 -156.5t-251 -564.5q0 -287 135 -449
t314.5 -217t348.5 -55zM1495 1610v-1442q295 5 547 156t252 565t-251 565t-548 156z" />
    <glyph glyph-name="afii10086" unicode="&#x444;" horiz-adv-x="2744" 
d="M1249 -860v831q-264 0 -506 91t-398.5 298.5t-156.5 528.5t156 527.5t398.5 298t506.5 91.5v1061h246v-1061q259 0 501.5 -91.5t401 -298t158.5 -527.5t-159 -528.5t-401 -298.5t-501 -91v-831h-246zM1249 168v1442q-296 -5 -547 -156.5t-251 -564.5q0 -287 135 -449
t314.5 -217t348.5 -55zM1495 1610v-1442q295 5 547 156t252 565t-251 565t-548 156z" />
    <glyph glyph-name="afii10087" unicode="&#xf5;" horiz-adv-x="1708" 
d="M45 0l660 913l-631 865h315l475 -693l443 693h286l-589 -860l659 -918h-311l-504 745l-488 -745h-315z" />
    <glyph glyph-name="afii10087" unicode="&#x445;" horiz-adv-x="1708" 
d="M45 0l660 913l-631 865h315l475 -693l443 693h286l-589 -860l659 -918h-311l-504 745l-488 -745h-315z" />
    <glyph glyph-name="afii10088" unicode="&#xf6;" horiz-adv-x="2023" 
d="M303 0v1778h246v-1581h885v1581h245v-1581h287v-656h-229v459h-1434z" />
    <glyph glyph-name="afii10088" unicode="&#x446;" horiz-adv-x="2023" 
d="M303 0v1778h246v-1581h885v1581h245v-1581h287v-656h-229v459h-1434z" />
    <glyph glyph-name="afii10089" unicode="&#xf7;" horiz-adv-x="1839" 
d="M1290 0v713q-218 -37 -467 -37q-215 0 -339 50.5t-181 173.5t-57 341v537h246v-537q0 -227 78.5 -298t228.5 -71h90q249 10 401 29v877h246v-1778h-246z" />
    <glyph glyph-name="afii10089" unicode="&#x447;" horiz-adv-x="1839" 
d="M1290 0v713q-218 -37 -467 -37q-215 0 -339 50.5t-181 173.5t-57 341v537h246v-537q0 -227 78.5 -298t228.5 -71h90q249 10 401 29v877h246v-1778h-246z" />
    <glyph glyph-name="afii10090" unicode="&#xf8;" horiz-adv-x="3006" 
d="M303 0v1778h246v-1581h831v1581h246v-1581h832v1581h245v-1778h-2400z" />
    <glyph glyph-name="afii10090" unicode="&#x448;" horiz-adv-x="3006" 
d="M303 0v1778h246v-1581h831v1581h246v-1581h832v1581h245v-1778h-2400z" />
    <glyph glyph-name="afii10091" unicode="&#xf9;" horiz-adv-x="3052" 
d="M303 0v1778h246v-1581h831v1581h246v-1581h832v1581h245v-1581h291v-656h-229v459h-2462z" />
    <glyph glyph-name="afii10091" unicode="&#x449;" horiz-adv-x="3052" 
d="M303 0v1778h246v-1581h831v1581h246v-1581h832v1581h245v-1581h291v-656h-229v459h-2462z" />
    <glyph glyph-name="afii10092" unicode="&#xfa;" horiz-adv-x="1892" 
d="M721 1057h352q388 0 532 -157.5t144 -371.5q0 -528 -680 -528h-594v1581h-430v197h676v-721zM721 197h332q176 0 305 61.5t129 269.5q0 332 -430 332h-336v-663z" />
    <glyph glyph-name="afii10092" unicode="&#x44a;" horiz-adv-x="1892" 
d="M721 1057h352q388 0 532 -157.5t144 -371.5q0 -528 -680 -528h-594v1581h-430v197h676v-721zM721 197h332q176 0 305 61.5t129 269.5q0 332 -430 332h-336v-663z" />
    <glyph glyph-name="afii10093" unicode="&#xfb;" horiz-adv-x="2355" 
d="M549 1057h352q676 0 676 -529q0 -528 -680 -528h-594v1778h246v-721zM549 197h332q176 0 305 61.5t129 269.5q0 332 -430 332h-336v-663zM1806 0v1778h246v-1778h-246z" />
    <glyph glyph-name="afii10093" unicode="&#x44b;" horiz-adv-x="2355" 
d="M549 1057h352q676 0 676 -529q0 -528 -680 -528h-594v1778h246v-721zM549 197h332q176 0 305 61.5t129 269.5q0 332 -430 332h-336v-663zM1806 0v1778h246v-1778h-246z" />
    <glyph glyph-name="afii10094" unicode="&#xfc;" horiz-adv-x="1720" 
d="M549 1057h352q676 0 676 -529q0 -528 -680 -528h-594v1778h246v-721zM549 197h332q176 0 305 61.5t129 269.5q0 332 -430 332h-336v-663z" />
    <glyph glyph-name="afii10094" unicode="&#x44c;" horiz-adv-x="1720" 
d="M549 1057h352q676 0 676 -529q0 -528 -680 -528h-594v1778h246v-721zM549 197h332q176 0 305 61.5t129 269.5q0 332 -430 332h-336v-663z" />
    <glyph glyph-name="afii10095" unicode="&#xfd;" horiz-adv-x="1724" 
d="M115 16v230q188 -123 417 -123q363 0 544 203.5t198 488.5h-959v197h955q-27 235 -196.5 439t-569.5 204q-178 0 -389 -94v217q223 73 430 73q277 0 503 -110t357 -327.5t131 -524.5q0 -301 -135 -519t-361 -331t-491 -113q-253 0 -434 90z" />
    <glyph glyph-name="afii10095" unicode="&#x44d;" horiz-adv-x="1724" 
d="M115 16v230q188 -123 417 -123q363 0 544 203.5t198 488.5h-959v197h955q-27 235 -196.5 439t-569.5 204q-178 0 -389 -94v217q223 73 430 73q277 0 503 -110t357 -327.5t131 -524.5q0 -301 -135 -519t-361 -331t-491 -113q-253 0 -434 90z" />
    <glyph glyph-name="afii10096" unicode="&#xfe;" horiz-adv-x="2998" 
d="M303 0v1778h246v-766h332q26 170 97.5 321.5t188 267t288.5 183t388 67.5q258 0 480.5 -117t354.5 -336t132 -509q0 -292 -132 -511t-353.5 -335.5t-481.5 -116.5q-270 0 -489.5 121t-344 325.5t-128.5 442.5h-332v-815h-246zM1843 123q232 0 392 118.5t236.5 295.5
t76.5 352q0 127 -43 263t-129 249t-221.5 183.5t-311.5 70.5q-207 0 -366.5 -103t-246.5 -278.5t-87 -384.5t87 -384.5t246.5 -278.5t366.5 -103z" />
    <glyph glyph-name="afii10096" unicode="&#x44e;" horiz-adv-x="2998" 
d="M303 0v1778h246v-766h332q26 170 97.5 321.5t188 267t288.5 183t388 67.5q258 0 480.5 -117t354.5 -336t132 -509q0 -292 -132 -511t-353.5 -335.5t-481.5 -116.5q-270 0 -489.5 121t-344 325.5t-128.5 442.5h-332v-815h-246zM1843 123q232 0 392 118.5t236.5 295.5
t76.5 352q0 127 -43 263t-129 249t-221.5 183.5t-311.5 70.5q-207 0 -366.5 -103t-246.5 -278.5t-87 -384.5t87 -384.5t246.5 -278.5t366.5 -103z" />
    <glyph glyph-name="afii10097" unicode="&#xff;" horiz-adv-x="1753" 
d="M115 0l516 766q-177 18 -312 142t-135 354q0 206 139.5 361t487.5 155h639v-1778h-246v745h-344l-471 -745h-274zM1204 942v639h-356q-418 0 -418 -319q0 -320 418 -320h356z" />
    <glyph glyph-name="afii10097" unicode="&#x44f;" horiz-adv-x="1753" 
d="M115 0l516 766q-177 18 -312 142t-135 354q0 206 139.5 361t487.5 155h639v-1778h-246v745h-344l-471 -745h-274zM1204 942v639h-356q-418 0 -418 -319q0 -320 418 -320h356z" />
    <glyph glyph-name="afii10059" unicode="&#x152;" horiz-adv-x="4219" 
d="M360 0v2867h279v-1204h1651v1204h278v-1204h475q152 0 305.5 -23t311 -102.5t264 -251t106.5 -446.5q0 -350 -176.5 -537.5t-417.5 -245t-511 -57.5h-635v1434h-1651v-1434h-279zM2568 229h402q169 0 336.5 37.5t302.5 173t135 400.5q0 368 -222 481t-483 113h-471v-1205
z" />
    <glyph glyph-name="afii10107" unicode="&#x153;" horiz-adv-x="2966" 
d="M303 0v1778h246v-721h999v721h246v-721h352q676 0 676 -529q0 -528 -680 -528h-594v860h-999v-860h-246zM1794 197h332q176 0 305 61.5t129 269.5q0 332 -430 332h-336v-663z" />
    <glyph glyph-name="afii10058" unicode="&#x160;" horiz-adv-x="3916" 
d="M672 2867h1593v-1204h475q152 0 305.5 -23t311 -102.5t264 -251t106.5 -446.5q0 -350 -176.5 -537.5t-417.5 -245t-512 -57.5h-634v2638h-1037v-1544q0 -268 -28.5 -464.5t-102.5 -343.5t-212.5 -229t-352.5 -82q-81 0 -225 25v229q123 -20 155 -20q212 0 319.5 122
t138 307t30.5 443v1786zM2265 229h401q775 0 775 611q0 368 -222 481t-483 113h-471v-1205z" />
    <glyph glyph-name="afii10106" unicode="&#x161;" horiz-adv-x="2814" 
d="M1642 1778v-721h353q676 0 676 -529q0 -528 -680 -528h-594v1581h-762v-1061q0 -520 -590 -520v197q145 0 219 53t99.5 152.5t25.5 265.5v1110h1253zM1642 197h332q177 0 305.5 61.5t128.5 269.5q0 332 -430 332h-336v-663z" />
    <glyph glyph-name="afii10193" unicode="&#x178;" horiz-adv-x="2040" 
d="M303 0v1778h246v-1581h942v1581h246v-1778h-602v-516h-230v516h-602z" />
    <glyph glyph-name="afii10100" unicode="&#x192;" horiz-adv-x="1339" 
d="M303 0v1778h991v-197h-745v-1581h-246z" />
    <glyph glyph-name="emdash" unicode="&#x2013;" horiz-adv-x="2458" 
d="M205 1319v229h2048v-229h-2048z" />
    <glyph glyph-name="endash" unicode="&#x2014;" horiz-adv-x="3359" 
d="M160 1016h3039v-197h-3039v197z" />
    <glyph glyph-name="quoteleft" unicode="&#x2018;" horiz-adv-x="1065" 
d="M877 2888l-431 -951l-258 127l545 889z" />
    <glyph glyph-name="quoteright" unicode="&#x2019;" horiz-adv-x="1065" 
d="M188 2003l430 950l259 -127l-545 -889z" />
    <glyph glyph-name="quotesinglbase" unicode="&#x201a;" horiz-adv-x="1036" 
d="M188 -549l373 1008l287 -135l-512 -942z" />
    <glyph glyph-name="quotedblleft" unicode="&#x201c;" horiz-adv-x="1552" 
d="M877 2888l-431 -951l-258 127l545 889zM1364 2859l-430 -950l-258 127l545 889z" />
    <glyph glyph-name="quotedblright" unicode="&#x201d;" horiz-adv-x="1552" 
d="M188 2003l430 950l259 -127l-545 -889zM676 1974l430 951l258 -127l-545 -889z" />
    <glyph glyph-name="quotedblbase" unicode="&#x201e;" horiz-adv-x="1552" 
d="M188 -520l430 950l259 -127l-545 -893zM676 -549l430 950l258 -127l-545 -892z" />
    <glyph glyph-name="dagger" unicode="&#x2020;" horiz-adv-x="2212" 
d="M967 -860v2666h-779v230h779v975h278v-975h778v-230h-778v-2666h-278z" />
    <glyph glyph-name="bullet" unicode="&#x2022;" horiz-adv-x="1393" 
d="M205 1360q0 122 61 235.5t173 184.5t257 71q144 0 256 -70.5t174 -184t62 -236.5q0 -124 -62 -237.5t-175 -184t-255 -70.5t-255 71t-174.5 184.5t-61.5 236.5z" />
    <glyph glyph-name="ellipsis" unicode="&#x2026;" horiz-adv-x="2851" 
d="M287 143q0 82 56.5 135.5t131.5 53.5q74 0 131.5 -53.5t57.5 -135.5q0 -81 -58 -134.5t-131 -53.5t-130.5 53.5t-57.5 134.5zM1237 143q0 74 52.5 131.5t135.5 57.5q76 0 132.5 -52.5t56.5 -136.5q0 -83 -57.5 -135.5t-131.5 -52.5q-73 0 -130.5 53.5t-57.5 134.5z
M2187 143q0 82 56.5 135.5t132.5 53.5q83 0 135.5 -56.5t52.5 -132.5q0 -83 -57.5 -135.5t-130.5 -52.5q-82 0 -135.5 57.5t-53.5 130.5z" />
    <glyph glyph-name="perthousand" unicode="&#x2030;" horiz-adv-x="4809" 
d="M618 -86l1692 3039h201l-1692 -3039h-201zM102 2265q0 192 94.5 343t248.5 234t317 83q157 0 311.5 -83t251 -234t96.5 -343q0 -191 -95.5 -341t-249 -234t-314.5 -84q-259 0 -459.5 187.5t-200.5 471.5zM332 2265q0 -136 61.5 -241.5t161 -163.5t207.5 -58t207.5 58
t161 163.5t61.5 241.5t-61.5 241.5t-161 163.5t-207.5 58t-207.5 -58t-161 -163.5t-61.5 -241.5zM1823 659q0 193 93.5 343.5t246 233.5t319.5 83q162 0 314.5 -83t249 -234.5t96.5 -342.5t-96 -341.5t-249 -234t-315 -83.5q-168 0 -320 84t-245.5 235t-93.5 340zM2052 659
q0 -198 130 -330t300 -132q167 0 298.5 129t131.5 333q0 201 -131 332t-299 131q-108 0 -207.5 -58t-161 -163.5t-61.5 -241.5zM3387 659q0 192 94.5 343.5t247 234t318.5 82.5q160 0 313 -82.5t249.5 -234.5t96.5 -343t-95.5 -341t-249 -234t-314.5 -84
q-259 0 -459.5 187.5t-200.5 471.5zM3617 659q0 -198 130 -330t300 -132q167 0 298.5 129t131.5 333q0 201 -131 332t-299 131q-171 0 -300.5 -129.5t-129.5 -333.5z" />
    <glyph glyph-name="quilsinglleft" unicode="&#x2039;" horiz-adv-x="1151" 
d="M172 901l614 864l177 -114l-537 -750l537 -754l-177 -114z" />
    <glyph glyph-name="quilsinglright" unicode="&#x203a;" horiz-adv-x="1151" 
d="M979 897l-614 -864l-177 114l537 750l-537 754l177 114z" />
    <glyph glyph-name="trademark" unicode="&#x2122;" horiz-adv-x="2671" 
d="M492 1720v918h-287v229h819v-229h-287v-918h-245zM1765 2085l250 782h271l180 -1147h-254l-115 746l-242 -746h-180l-241 746l-115 -746h-254l180 1147h271z" />
    <glyph glyph-name="afii10051" horiz-adv-x="2822" 
d="M819 0v2638h-774v229h1937v-229h-884v-987q288 90 557 90q198 0 373.5 -54.5t311.5 -164t215 -280.5t79 -394q0 -290 -116.5 -479t-340 -279t-547.5 -90v229h160q212 0 384.5 144t172.5 475q0 207 -85.5 357t-243.5 228t-367 78q-289 0 -553 -106v-1405h-279z" />
    <glyph glyph-name="afii10052" horiz-adv-x="1667" 
d="M360 0v2867h1262v-229h-983v-2638h-279z" />
    <glyph glyph-name="afii10061" horiz-adv-x="2339" 
d="M360 0v2867h279v-1331l1282 1331h344l-1360 -1388l1389 -1479h-373l-1282 1393v-1393h-279z" />
    <glyph glyph-name="afii10060" horiz-adv-x="2912" 
d="M819 0v2638h-774v229h1942v-229h-889v-1004q471 29 643 29q398 0 592.5 -101t243.5 -250t49 -378v-934h-279v868q0 213 -44.5 331t-185 176.5t-421.5 58.5q-220 -4 -598 -29v-1405h-279z" />
    <glyph glyph-name="afii10145" horiz-adv-x="2937" 
d="M360 0v2867h279v-2638h1659v2638h278v-2867h-979v-696h-258v696h-979z" />
    <glyph glyph-name="afii10099" horiz-adv-x="1991" 
d="M299 0v2335h-270v196h270v480h246v-480h917v-196h-917v-852q84 158 233 263t365 105q386 0 522.5 -287.5t136.5 -641.5q0 -286 -74 -517.5t-217.5 -437.5t-380.5 -446l-143 135q220 273 334.5 464t166.5 385.5t52 448.5q0 205 -47 364.5t-143 248t-236 88.5
q-137 0 -269 -85t-216 -250.5t-84 -393.5v-926h-246z" />
    <glyph glyph-name="afii10109" horiz-adv-x="1753" 
d="M303 0v1778h246v-795l794 795h295l-856 -828l926 -950h-315l-844 889v-889h-246z" />
    <glyph glyph-name="afii10108" horiz-adv-x="2064" 
d="M299 0v2335h-270v196h270v480h246v-480h917v-196h-917v-852q193 368 598 368q313 0 465.5 -196.5t152.5 -515.5v-1139h-245v1106q0 223 -73 386t-329 163q-173 0 -302.5 -102t-198 -271t-68.5 -356v-926h-246z" />
  </font>
</defs>
</svg>
